<?xml version="1.0" encoding="UTF-8" standalone="no"?><!DOCTYPE svg PUBLIC "-//W3C//DTD SVG 1.1//EN" "http://www.w3.org/Graphics/SVG/1.1/DTD/svg11.dtd"><svg width="100%" height="100%" viewBox="0 0 3184 3375" version="1.1" xmlns="http://www.w3.org/2000/svg" xmlns:xlink="http://www.w3.org/1999/xlink" xml:space="preserve" xmlns:serif="http://www.serif.com/" style="fill-rule:evenodd;clip-rule:evenodd;stroke-linejoin:round;stroke-miterlimit:2;"><rect id="Mesa-de-trabajo1" serif:id="Mesa de trabajo1" x="0" y="0" width="3183.333" height="3375" style="fill:none;"/><g id="Fondo"><path d="M2845.079,367.216c3.329,3.352 190.429,166.498 192.018,447.367c0.873,154.331 -0.041,154.257 -0.039,1929.169c0,226.325 -161.981,385.502 -342.997,426.581c-61.374,13.928 -62.059,11.43 -450.307,11.574c-310.365,0.115 -1694.005,0.09 -1708.342,-0.169c-232.777,-4.211 -408.764,-193.362 -426.843,-379.485c-4.162,-42.842 -3.996,-42.845 -3.999,-229.336c-0.021,-1783.9 -0.642,-1784.077 3.158,-1812.264c0.909,-6.743 2.022,-87.498 58.189,-212.117c9.535,-21.157 76.74,-153.938 203.415,-241.294c99.856,-68.862 168.613,-97.266 299.369,-118c47.324,-7.504 207.555,-3.947 737.541,-4.772c82.333,-0.128 996.37,-1.551 1029.159,1.168c0.438,0.036 230.084,4.156 409.679,181.578Z" style="fill:#347551;fill-opacity:1;"/><path d="M2497.703,1539.177c-10.634,7.541 -7.158,10.331 -6.947,87.922c0.399,146.82 9.683,199.14 -10.649,291.347c-1.074,3.612 -11.924,40.101 -13.285,45.191c-19.929,57.724 -66.395,124.942 -94.368,150.432c-69.005,62.878 -121.425,76.435 -262.663,157.638c-10.084,5.797 -10.829,4.16 -128.164,68.651c-9.286,5.104 -97.769,53.738 -117.419,61.283c-1.369,0.526 -12.359,4.746 -15.861,9.189c-0.655,0.831 0.037,2.283 -0.618,3.114c-40.122,14.792 -135.705,96.576 -324.948,80.949c-4.835,-0.399 -95.647,-16.104 -108.516,-25.467c-3.13,-2.277 -60.117,-21.555 -141.031,-67.876c-16.189,-9.268 -16.515,-8.097 -205.235,-110.68c-6.61,-3.593 -85.77,-44.12 -106.881,-56.811c-113.255,-68.085 -202.119,-78.442 -279.009,-257.318c-23.98,-55.786 -29.856,-69.896 -32.35,-208.004c-0.499,-27.651 3.069,-27.564 0.575,-133.253c-0.157,-6.669 1.301,-6.528 0.996,-83.376c-0.24,-60.453 0.682,-60.301 -0.42,-120.82c-1.029,-56.497 -1.151,-227.348 -2.308,-254.183c-0.46,-10.67 13.966,-117.16 37.608,-166.29c34.008,-70.669 56.595,-92.414 63.366,-98.932c26.814,-25.813 22.724,-30.91 84.79,-70.119c8.454,-5.341 8.864,-4.386 108.747,-61.639c33.37,-19.128 31.796,-21.684 66.476,-38.384c8.612,-4.147 107.409,-60.858 116.72,-66.202c8.279,-4.752 8.291,-4.583 104.214,-58.12c163.657,-91.341 167.304,-108.482 275.67,-125.618c171.924,-27.187 272.312,52.702 300.491,67.756c13.678,7.307 12.993,8.296 169.491,94.072c29.416,16.123 122.769,69.558 183.424,104.107c125.237,71.336 143.158,71.598 212.81,132.471c69.175,60.456 135.372,209.971 120.266,349.318c-3.167,29.216 -0.615,61.458 -0.194,66.785c2.084,26.336 -3.607,221.845 -2.652,224.925c0.265,0.855 0.578,0.583 7.875,7.948Z" style="fill:#64391a;"/><path d="M2443.297,1181.321c9.38,49.31 -2.199,126.134 1.319,358.258c0.893,58.899 -1.607,126.314 1.8,216.736c3.427,90.946 -1.334,171.913 -69.111,279.332c-1.635,2.591 -2.157,2.154 -23.72,30.062c-12.594,16.3 -13.388,15.265 -21.255,20.715c-12.291,6.15 -7.175,12.866 -49.788,38.564c-18.664,11.256 -19.387,9.419 -239.257,130.314c-23.023,12.659 -23.596,11.179 -46.496,24.031c-18.26,10.247 -17.867,10.708 -43.653,24.823c-10.078,5.517 -11.846,2.284 -29.01,15.967c-12.034,9.594 -14.118,5.493 -27.002,13.803c-24.802,15.999 -93.181,49.249 -98.392,52.782c-18.679,12.663 -20.808,8.147 -45.622,21.385c-3.499,-1.9 -1.782,-3.604 -5.192,-5.456c-0.299,-0.162 -0.286,0.687 -4.242,0.333c-1.028,-0.092 -2.588,-1.516 -8.221,-0.7c-10.341,1.498 -10.25,-0.152 -20.802,1.294c-3.626,0.497 -26.085,3.575 -45.236,-6.809c-21.482,-11.648 -26.865,-11.735 -24.107,-36.134c7.772,-68.752 6.879,-68.677 8.474,-167.098c0.209,-12.885 -4.101,-10.71 -5.66,-11.688c-1.186,1.228 -2.373,2.456 -3.559,3.684c-0.086,2.008 -5.899,92.57 -8.736,116.664c-11.066,-3.753 -10.906,-3.628 -12.827,-4.449c-12.797,-5.467 -2.997,-10.462 -3.115,-11.891c-0.161,-1.943 -2.409,-3.081 -3.39,-4.767c-2.992,-5.142 0.132,-5.492 -0.281,-13.086c-0.446,-8.188 -2.87,-7.311 -2.791,-7.983c0.19,-1.62 2.721,-2.116 3.249,-3.66c1.275,-3.726 -0.998,-19.321 -1.241,-20.985c-3.463,-23.755 -7.897,-126.964 -9.678,-133.245c-9.196,-32.444 -1.645,-33.46 -7.177,-58.523c-3.172,-14.373 -14.608,-174.224 1.273,-303.58c4.571,-37.227 11.491,-40.271 2.298,-100.444c-11.969,-78.345 59.086,-176.649 109.079,-207.16c25.41,-15.508 1.582,26.481 -4.118,40.864c-3.562,8.988 -28.868,72.843 -32.613,116.363c-0.763,8.87 -2.245,10.332 5.487,14.872c3.511,-6.712 3.618,-6.614 3.798,-7.243c8.841,-31.006 8.722,-30.888 19.596,-61.346c23.871,-66.861 32.217,-71.62 57.258,-125.435c8.575,-13.838 8.737,-13.666 21.955,-23.319c6.792,-4.96 77.747,-45.781 86.837,-50.26c64.694,-31.878 63.408,-33.921 141.721,-79.423c50.481,-29.331 49.876,-30.225 54.292,-32.717c30.24,-17.069 29.255,-18.689 32.088,-19.714c34.129,-12.354 43.065,-24.424 63.904,-34.292c45.477,-21.534 43.16,-25.674 74.089,-39.246c21.358,-9.372 82.26,-50.077 133.211,-37.583c50.448,12.371 -8.877,16.605 -42.945,35.406c-14.604,8.059 -44.148,23.418 -44.478,31.076c-0.636,14.77 29.602,-16.503 116.548,-33.595c22.684,-4.459 30.591,38.76 39.994,50.265c1.456,1.781 3.99,2.457 5.445,4.238Z" style="fill:#e6c696;"/><path d="M1655.917,541.122c57.994,15.663 56.529,19.493 180.499,88.379c18.614,10.343 86.474,49.01 93.984,53.289c123.893,70.594 126.763,65.246 170.831,95.55c4.436,3.051 10.076,6.929 58.298,33.629c32.019,17.729 110.125,58.391 144.318,83.896c0,0 7.28,4.248 7.913,4.617c0.284,2.27 -1.628,4.461 -1.344,6.731c0.397,3.173 6.601,0.518 15.252,36.942c5.83,24.543 9.487,42.078 -11.75,74.257c-23.115,28.847 -31.689,31.666 -196.373,123.524c-30.022,16.746 -103.355,62.573 -243.722,136.904c-38.791,20.542 -37.814,21.915 -76.834,42.28c-6.837,3.355 -5.39,5.62 -82.918,46.773c-35.199,18.684 -109.261,37.032 -153.65,34.055c-126.278,-8.47 -164.458,-66.322 -207.601,-85.091c-143.429,-62.399 -224.42,-116.403 -264.122,-138.267c-36.833,-20.285 -36.391,-20.595 -73.135,-40.709c-77.856,-42.62 -172.37,-84.607 -193.338,-127.112c-25.912,-52.526 1.651,-85.118 -2.117,-91.305c-1.453,-2.385 -4.747,-3.251 -6.2,-5.636c27.196,-17.304 24.455,-20.989 54.358,-37.696c26.046,-14.552 54.983,-32.301 59.71,-35.2c7.743,-4.749 8.725,-2.929 98.342,-56.748c92.482,-55.54 209.68,-114.659 370.707,-208.555c109.543,-63.876 230.436,-39.87 258.891,-34.508Z" style="fill:#fbf3dc;"/><path d="M701.938,1152.049c13.938,-15.823 17.113,-32.953 41.369,-46.657c20.399,-11.525 13.61,15.482 13.57,17.564c-0.282,14.566 3.863,79.652 11.722,80.136c17.36,1.069 -4.973,-106.377 20.62,-110.602c10.337,-1.706 47.89,4.996 58.884,9.065c48.685,18.022 53.072,27.876 125.088,66.669c18.666,10.055 17.214,12.311 229.83,131.969c99.96,56.256 99.494,56.904 126.227,70.051c27.942,48.591 24.25,69.072 67.937,99.768c52.379,36.803 69.733,60.131 74.503,66.543c3.605,4.846 3.654,4.618 3.959,5.029c4.579,6.167 5.615,4.477 11.793,7.434c-0.82,-5.914 -4.191,-30.243 -40.139,-62.919c-2.468,-2.243 -3.034,-1.415 -33.376,-24.985c-13.872,-10.776 -29.129,-4.777 -48.32,-46.943c-12.032,-26.435 -15.806,-30.243 -9.69,-30.355c0.659,-0.012 35.76,22.844 38.852,24.857c17.444,11.358 98.584,53.834 132.683,159.934c10.521,32.737 5.533,57.315 13.083,95.833c1.516,7.734 13.391,285.28 -0.304,391.92c-1.315,10.241 -1.636,12.74 -0.508,129.057c0.812,83.726 15.886,136.936 -38.551,194.778c-8.802,9.353 -10.625,0.216 -10.181,-3.081c1.336,-9.918 15.979,-118.582 6.845,-124.902c-5.129,-3.549 -6.955,3.707 -7.118,4.354c-1.66,6.594 0.879,7.052 -16.272,83.422c-10.062,44.803 1.223,59.317 -26.98,64.716c-8.303,1.589 -27.04,7.362 -25.77,-11.108c3.921,-57.054 -2.747,-59.892 -6.554,-57.288c-3.125,2.137 -1.948,2.769 -2.286,6.506c-0.838,9.262 -1.4,9.051 -4.978,26.376c-1.23,-1.697 2.4,-4.484 -5.791,-7.991c-0.616,-0.264 -0.699,0.669 -8.367,-0.467c-35.422,-5.251 -41.217,-8.737 -44.342,-10.617c-13.121,-7.892 -14.021,-5.753 -27.483,-12.808c-23.48,-12.306 -25.051,-9.873 -31.484,-12.19c-1.391,-0.501 -11.27,-7.532 -14.091,-8.774c-34.209,-15.052 -34.004,-15.529 -37.125,-16.429c-11.91,-3.435 -11.836,-3.253 -29.742,-12.582c-34.821,-18.14 -36.776,-13.46 -65.071,-28.292c-57.4,-30.088 -82.017,-47.138 -88.777,-51.82c-52.94,-36.666 -56.341,-31.786 -73.253,-48.074c-9.773,-9.412 -10.878,-7.524 -22.464,-14.577c-2.456,-1.495 -23.571,-14.348 -29.809,-20.085c-16.569,-15.237 -31.046,-17.384 -48.156,-31.669c-18.465,-15.416 -23.251,-11.492 -37.795,-32.688c-12.416,-18.095 -10.345,-51.098 -21.261,-53.711c-6.389,-1.529 -6.511,6.52 -3.67,37.399c0.922,10.025 -2.537,8.927 -3.592,10.666c-17.442,-18.053 -37.489,-116.457 -42.674,-119.082c-13.207,-6.685 2.9,62.092 2.963,78.856c-0.822,-0.189 -1.356,1.477 -2.178,1.287c-8.96,-2.066 -10.218,-29.559 -36.869,-56.336c-2.188,-2.198 -5.186,-9.136 -16.065,-16.214c-37.51,-100.217 -22.6,-138.672 -22.367,-395.081c0.023,-25.246 -2.719,-25.011 -0.556,-50c3.158,-36.489 -14.841,-228.304 4.086,-345.863Z" style="fill:#f5e1b9;"/><path d="M1454.567,1711.047c9.248,42.485 -9.205,43.706 -5.108,57.304c1.804,5.987 37.803,43.583 11.333,71.611c-10.954,11.598 -2.712,25.771 -6.428,66.119c-16.818,182.602 -153.034,314.404 -363.952,223.267c-15.844,-6.846 -83.767,-46.825 -112.54,-73.952c-120.799,-113.888 -157.734,-213.111 -182.034,-311.173c-22.509,-90.834 -11.132,-142.169 -8.458,-154.233c3.088,-13.935 3.534,-14.886 -5.389,-25.996c-20.238,-25.198 -26.302,-66.694 3.237,-83.056c25.372,-14.053 0.708,-28.81 17.349,-53.535c9.4,-13.967 41.337,-28.38 67.957,6.62c21.737,28.581 30.449,-2.86 33.25,-5.001c3.267,-2.497 6.814,-4.609 10.158,-7.002c18.179,-13.012 1.508,-37.837 27.28,-59.775c19.493,-16.593 53.184,-1.502 67.725,20.044c10.303,15.267 14.104,27.94 26.15,30.13c56.84,10.333 41.967,57.396 54.44,57.79c8.13,0.257 -2.104,-16.16 21.224,-30.043c19.196,-11.424 27.111,13.237 41.787,-0.028c34.345,-31.044 67.826,3.702 75.336,32.573c4.286,16.478 2.795,18.217 16.934,27.696c42.457,28.461 13.801,60.426 28.51,62.961c11.287,1.945 16.352,-39.968 46.83,-13.009c17.928,15.858 11.349,20.006 25.974,52.606c10.678,23.802 4.442,26.661 20.439,47.409c17.555,22.768 16.31,25.717 22.862,25.257c7.453,-0.523 15.581,-9.295 41.874,5.527c12.186,6.869 21.946,27.161 23.259,29.891Z" style="fill:#4c5629;"/><path d="M2055.91,972.927c0.396,16.745 1.117,16.615 -0.159,33.297c-5.465,71.445 -72.849,88.114 -103.652,88.499c-21.629,0.271 -18.775,18.577 -46.931,34.603c-61.273,34.876 -59.871,37.184 -65.4,39.82c-25.75,12.279 -31.228,20.102 -43.041,26.935c-153.031,88.519 -170.756,122.708 -253.215,102.764c-20.969,-5.072 -82.477,-41.271 -85.803,-44.129c-12.241,-10.518 -19.24,-11.179 -52.056,-30.625c-112.491,-66.66 -163.37,-89.069 -193.368,-111.421c-29.923,-25.39 -28.386,-41.985 -28.422,-64.792c-0.111,-69.396 -0.238,-77.729 60.933,-110.416c5.068,-2.708 52.837,-29.92 53.574,-30.292c25.161,-12.73 23.761,-14.81 48.992,-27.024c24.323,-11.774 14.953,-32.067 71.952,-64.514c38.325,-21.817 51.224,-0.8 61.603,-5.903c2.659,-1.307 20.841,-10.246 32.547,-17.672c21.635,-13.724 12.887,-21.386 30.631,-39.632c75.58,-77.721 256.156,-34.187 379.405,40.247c138.859,83.861 130.295,138.487 132.409,180.254Z" style="fill:#573e15;"/><path d="M1785.84,1781.719c77.45,-70.818 105.08,-77.181 119.314,-89.124c4.096,-3.437 0.756,-4.109 -5.28,-16.431c-10.35,-21.131 -0.144,-27.61 1.808,-28.849c58.275,-36.992 96.908,-11.088 103.82,-6.454c13.748,9.218 17.853,-14.258 27.218,-25.015c43.029,-49.426 83.944,-50.613 86.055,-51.171c33.156,-8.768 16.34,15.709 20.79,29.082c2.729,8.199 48.946,-5.522 91.545,-2.525c93.332,6.568 116.943,38.517 131.182,59.549c55.938,82.626 -52.446,278.327 -71.564,306.147c-84.995,123.689 -155.866,163.077 -204.517,188.236c-161.116,83.319 -346.165,50.143 -406.261,-130.222c-21.278,-63.861 20.215,-156.746 105.888,-233.224Z" style="fill:#484127;"/><path d="M2760.936,1452.532c-16.445,51.266 -78.828,202.109 -200.657,316.064c-30.635,28.655 -59.539,49.762 -58.941,52.931c0.354,1.875 3.452,2.526 2.166,18.077c-4.645,56.174 -5.185,56.033 -9.737,70.822c-1.309,4.253 -2.496,3.496 -4.184,7.619c-0.615,1.503 0.39,3.3 -0.018,4.872c-1.921,7.394 -5.357,5.484 -10.329,-0.54c-0.854,-1.035 1.724,-2.896 0.87,-3.931c20.332,-92.207 11.048,-144.528 10.649,-291.347c-0.211,-77.591 -3.687,-80.381 6.947,-87.922c30.459,-15.742 28.838,-17.869 55.866,-39.364c12.654,-10.064 74.992,-59.64 122.663,-160.618c53.265,-112.828 41.32,-237.275 39.324,-258.063c-9.424,-98.172 -71.734,-205.379 -76.697,-211.789c-1.589,-2.053 -42.5,-63.451 -68.617,-85.876c-17.942,-15.405 -15.367,-17.908 -34.112,-32.261c-6.095,-4.667 -6.24,-10.177 -9.976,-15.453c-17.632,-24.894 45.277,16.384 63.964,32.324c101.013,86.163 118.859,117.152 147.162,157.693c11.631,16.661 77.386,110.849 107.057,230.327c56.965,229.386 0.214,411.516 -10.393,445.556c-6.25,21.079 -5.776,20.962 -13.015,41.599c-28.006,71.593 -29.216,79.313 -57.889,132.882c-18.573,34.699 -19.183,34.133 -38.523,68.535c-41.607,74.012 -123.138,167.437 -189.382,227.928c-41.366,37.773 -92.771,75.585 -101.152,81.75c-34.692,25.518 -208.99,153.727 -485.871,231.796c-92.333,26.034 -92.227,26.093 -100.384,27.8c0.655,-0.831 -0.037,-2.283 0.618,-3.114c3.502,-4.443 14.492,-8.663 15.861,-9.189c19.651,-7.546 108.134,-56.18 117.419,-61.283c117.334,-64.492 118.08,-62.854 128.164,-68.651c141.238,-81.203 193.658,-94.759 262.663,-157.638c27.973,-25.49 74.439,-92.708 94.368,-150.432c2.684,0.929 3.411,5.024 6.094,5.954c1.282,0.444 1.822,-2.04 2.925,-2.83c3.063,-2.192 31.511,-22.548 37.565,-28.389c41.155,-39.706 58.804,-52.015 114.336,-127.498c38.849,-52.807 36.958,-53.914 67.899,-111.863c65.139,-121.999 72.457,-246.012 72.019,-246.504c-0.714,-0.803 -2.505,0.971 -3.218,0.169c-1.169,-0.048 -2.338,-0.095 -3.507,-0.143Z" style="fill:#faf0d4;"/><path d="M2311.76,900.482c58.218,38.399 94.182,114.493 102.176,131.124c19.636,40.847 18.465,63.085 27.12,90.878c4.474,14.367 2.805,14.496 3.897,29.354c1.104,15.016 2.334,15.112 -1.657,29.483c-1.456,-1.781 -3.99,-2.457 -5.445,-4.238c-9.403,-11.504 -17.31,-54.724 -39.994,-50.265c-86.946,17.091 -117.185,48.365 -116.548,33.595c0.33,-7.658 29.875,-23.017 44.478,-31.076c34.068,-18.801 93.394,-23.035 42.945,-35.406c-50.951,-12.494 -111.853,28.211 -133.211,37.583c-30.929,13.573 -28.612,17.712 -74.089,39.246c-20.839,9.867 -29.775,21.938 -63.904,34.292c-2.833,1.025 -1.847,2.645 -32.088,19.714c-4.416,2.493 -3.811,3.386 -54.292,32.717c-78.314,45.503 -77.028,47.545 -141.721,79.423c-9.09,4.479 -80.045,45.3 -86.837,50.26c-13.218,9.653 -13.38,9.481 -21.955,23.319c-25.041,53.815 -33.387,58.573 -57.258,125.435c-10.874,30.458 -10.755,30.34 -19.596,61.346c-0.179,0.629 -0.286,0.531 -3.798,7.243c-7.732,-4.54 -6.25,-6.002 -5.487,-14.872c3.745,-43.52 29.051,-107.375 32.613,-116.363c5.7,-14.383 29.529,-56.372 4.118,-40.864c-49.993,30.511 -121.049,128.815 -109.079,207.16c9.193,60.173 2.272,63.218 -2.298,100.444c-15.882,129.356 -4.446,289.206 -1.273,303.58c5.531,25.063 -2.02,26.079 7.177,58.523c1.78,6.28 6.215,109.49 9.678,133.245c0.243,1.664 2.516,17.259 1.241,20.985c-0.528,1.543 -3.059,2.04 -3.249,3.66c-0.079,0.672 2.346,-0.204 2.791,7.983c0.413,7.595 -2.711,7.944 0.281,13.086c0.98,1.685 3.229,2.824 3.39,4.767c0.118,1.428 -9.682,6.424 3.115,11.891c1.921,0.821 1.762,0.696 12.827,4.449c2.837,-24.094 8.651,-114.656 8.736,-116.664l3.559,-3.684c1.559,0.977 5.869,-1.197 5.66,11.688c-1.594,98.421 -0.702,98.346 -8.474,167.098c-2.758,24.399 2.625,24.486 24.107,36.134c19.151,10.384 41.61,7.306 45.236,6.809c10.552,-1.446 10.461,0.204 20.802,-1.294c5.633,-0.816 7.193,0.608 8.221,0.7c3.956,0.354 3.943,-0.495 4.242,-0.333c3.41,1.852 1.693,3.556 5.192,5.456c-7.043,4.9 -33.047,22.991 -100.752,36.749c-1.347,0.274 -57.575,6.329 -66.961,6.498c-81.153,1.464 -165.449,-27.559 -187.524,-44.446c0.98,-1.033 3.285,0.798 4.265,-0.235c1.052,-1.108 5.35,-34.46 5.738,-37.467c3.577,-17.325 4.14,-17.114 4.978,-26.376c0.338,-3.737 -0.838,-4.368 2.286,-6.506c3.807,-2.604 10.475,0.234 6.554,57.288c-1.269,18.47 17.467,12.698 25.77,11.108c28.203,-5.399 16.918,-19.913 26.98,-64.716c17.151,-76.37 14.612,-76.828 16.272,-83.422c0.163,-0.647 1.989,-7.903 7.118,-4.354c9.134,6.321 -5.509,114.985 -6.845,124.902c-0.444,3.298 1.379,12.434 10.181,3.081c54.437,-57.842 39.363,-111.052 38.551,-194.778c-1.128,-116.317 -0.807,-118.817 0.508,-129.057c13.695,-106.64 1.82,-384.187 0.304,-391.92c-7.55,-38.519 -2.562,-63.097 -13.083,-95.833c-34.099,-106.099 -115.24,-148.575 -132.683,-159.934c-3.092,-2.013 -38.193,-24.869 -38.852,-24.857c-6.115,0.112 -2.341,3.92 9.69,30.355c19.191,42.166 34.448,36.167 48.32,46.943c30.342,23.57 30.908,22.741 33.376,24.985c35.948,32.677 39.32,57.005 40.139,62.919c-6.178,-2.957 -7.214,-1.267 -11.793,-7.434c-0.305,-0.411 -0.354,-0.183 -3.959,-5.029c-4.77,-6.412 -22.124,-29.74 -74.503,-66.543c-43.687,-30.696 -39.996,-51.177 -67.937,-99.768c-26.732,-13.147 -26.267,-13.794 -126.227,-70.051c-212.616,-119.658 -211.164,-121.915 -229.83,-131.969c-72.016,-38.793 -76.403,-48.647 -125.088,-66.669c-10.994,-4.07 -48.547,-10.772 -58.884,-9.065c-25.593,4.224 -3.26,111.671 -20.62,110.602c-7.859,-0.484 -12.004,-65.57 -11.722,-80.136c0.04,-2.082 6.829,-29.089 -13.57,-17.564c-24.256,13.704 -27.431,30.833 -41.369,46.657c-6.428,-22.516 5.408,-58.179 21.83,-108.039c14.916,-45.287 42.49,-79.11 47.416,-85.154c3.138,-3.849 25.155,-30.857 42.725,-45.027c1.453,2.385 4.747,3.251 6.2,5.636c3.768,6.186 -23.795,38.779 2.117,91.305c20.968,42.504 115.482,84.492 193.338,127.112c36.744,20.114 36.302,20.425 73.135,40.709c39.702,21.865 120.692,75.868 264.122,138.267c43.143,18.769 81.323,76.621 207.601,85.091c44.389,2.977 118.451,-15.371 153.65,-34.055c77.528,-41.153 76.081,-43.418 82.918,-46.773c39.02,-20.365 38.043,-21.738 76.834,-42.28c140.367,-74.331 213.7,-120.158 243.722,-136.904c164.684,-91.858 173.258,-94.676 196.373,-123.524c21.238,-32.179 17.58,-49.714 11.75,-74.257c-8.651,-36.424 -14.855,-33.77 -15.252,-36.942c-0.284,-2.27 1.628,-4.461 1.344,-6.731Z" style="fill:#c49460;"/><path d="M1777.353,2601.018c50.652,17.466 92.865,48.822 95.884,142.734c2.803,87.188 -60.245,120.926 -70.451,126.387c-26.928,14.409 -63.904,18.898 -146.597,16.675c-42.999,-1.156 -36.208,-36.88 -36.354,-105.575c-0.352,-165.778 -1.242,-167.44 8.197,-178.352c8.236,-9.521 16.511,-9.656 86.535,-8.472c36.862,0.624 36.955,1.093 62.787,6.601Z" style="fill:#faf6db;"/><path d="M1507.776,841.558c62.605,-60.433 144.901,-21.885 173.46,-23.146c4.314,-0.19 38.056,-1.68 53.685,5.672c29.129,13.702 30.312,27.165 33.535,36.432c4.736,13.619 15.265,21.911 19.563,37.83c11.448,42.405 -12.305,61.725 -17.67,67.99c-40.08,41.158 -47.997,50.143 -88.994,57.287c-50.419,8.787 -50.233,-20.001 -108.262,-8.093c-105.691,21.689 -135.08,-48.116 -136.09,-67.726c-2.468,-47.907 30.988,-46.071 54.437,-86.434c6.974,-10.972 6.99,-10.842 16.335,-19.813Z" style="fill:#fbf8ef;"/><path d="M699.367,2762.958c1.854,-0.014 0.966,-1.795 2.845,-1.81c3.348,-0.026 2.024,1.956 2.148,1.771c0.553,-0.827 -0.755,-1.12 4.307,-11.667c16.209,-33.776 14.059,-34.404 28.515,-69.175c27.427,-65.967 37.109,-98.694 77.47,-88.595c33.199,8.307 29.357,20.037 43.273,175.139c7.74,86.265 16.128,116.006 -18.411,120.331c-48.165,6.031 -38.107,-56.283 -43.185,-99.152c-6.007,-50.706 -2.531,-87.214 -10.188,-85.819c-3.301,0.602 -8.361,22.676 -10.097,26.802c-32.679,77.649 -41.955,111.177 -61.11,118.03c-48.277,17.271 -56.152,-52.796 -80.861,-104.439c-18.405,-38.465 -15.868,-41.274 -19.522,-41.292c-8.271,-0.041 -0.538,19.048 -8.911,94.785c-4.024,36.392 6.934,96.063 -40.977,90.981c-33.799,-3.585 -27.914,-33.467 -18.472,-132.792c12.661,-133.174 5.783,-158.455 47.34,-163.681c38.629,-4.858 55.11,45.813 58.535,55.549c13.373,38.027 27.434,65.712 47.302,115.035Z" style="fill:#faf5da;"/><path d="M2355.169,2802.072c0.264,56.927 6.124,87.961 -28.084,87.447c-28.84,-0.433 -23.417,-32.494 -36.413,-19.622c-58.748,58.188 -176.381,-3.347 -138.804,-134.542c12.836,-44.814 79.725,-92.269 132.718,-48.514c0.661,0.546 10.183,8.408 10.673,-1.007c1.234,-23.709 -8.047,-84.192 7.226,-100.029c17.865,-18.526 51.639,-8.638 52.45,20.515c0.436,15.654 0.147,15.595 0.234,195.752Z" style="fill:#faf5dc;"/><path d="M1892.978,1012.55c111.992,-39.353 86.229,-168.484 -3.341,-189.815c-24.491,-5.832 -24.695,-6.294 -43.168,-23.181c-15.757,-14.405 -101.243,-69.461 -203.69,-20.322c-23.011,11.037 -23.581,9.499 -49.035,10.074c-26.838,0.607 -37.836,10.205 -41.346,4.335c-2.174,-3.637 5.506,-25.441 21.709,-35.629c64.655,-40.654 164.186,-13.728 177.95,-10.005c190.74,51.601 348.528,184.973 238.16,251.072c-31.665,18.964 -47.249,-3.758 -77.762,25.566c-6.647,6.388 -23.661,22.74 -96.585,62.847c-2.654,-1.887 -2.801,-6.217 -5.454,-8.105c-0.661,-0.47 -16.607,5.201 -19.992,6.964c-2.046,1.066 -0.991,2.309 -21.675,19.026c-4.198,3.393 -4.203,3.329 -4.167,3.777c0.388,4.758 4.672,2.412 5.052,7.07c-137.025,82.818 -157.883,101.824 -200.977,94.882c-30.757,-4.954 -28.902,-10.09 -115.633,-56.543c-20.65,-11.06 -111.42,-64.604 -121.066,-70.295c-66.99,-39.517 -146.163,-72.145 -108.398,-106.43c15.317,-13.906 25.922,-12.312 70.645,-41.47c13.709,-8.938 11.258,1.876 10.85,2.671c-1.67,3.257 -9.94,8.471 -16.055,33.728c-9.116,37.649 8.467,97.09 63.129,88.216c22.313,-3.622 25.622,-5.639 32.695,8.159c21.393,39.612 39.131,55.584 87.612,72.035c128.487,33.91 144.051,-18.356 171.204,-13.543c34.196,6.061 70.881,14.487 126.412,-36.6c15.451,-14.214 12.74,-19.408 23.811,-20.858c16.985,-2.226 41.284,-2.35 66.974,-34.377c1.757,0.815 0.19,-3.082 1.909,-2.284c4.012,1.861 2.043,3.946 5.886,5.9c1.893,0.963 19.099,-15.329 20.645,-16.792c6.596,-6.246 2.812,-7.656 3.701,-10.076Z" style="fill:#e9c083;"/><path d="M2227.309,1735.611c8.347,3.176 69.379,14.935 31.38,111.213c-0.99,2.508 -8.952,15.666 -8.86,17.016c0.166,2.438 3.72,3.779 3.885,6.217c-3.815,4.299 -13.082,15.462 -12.974,16.591c0.194,2.024 4.013,2.394 4.207,4.419c-9.786,8.862 -9.662,8.947 -10.511,9.715c-7.038,6.364 -9.3,2.825 -15.981,9.406c1.424,-26.945 -15.642,4.102 -70.471,17.202c-75.016,17.922 -123.971,-34.772 -157.943,-20.089c-1.106,0.478 -12.912,5.581 -13.278,7.111c-2.505,10.488 6.846,2.298 42.386,15.774c111.523,42.287 118.089,10.203 154.062,14.593c-2.109,1.461 -0.647,3.137 -24.873,20.254c-1.84,-0.835 -2.574,-3.319 -4.414,-4.154c-1.347,-0.611 -1.353,-0.159 -12.694,3.074c-67.374,19.207 -161.996,-51.162 -194.755,-23.157c-12.293,10.508 5.546,4.747 40.994,14.308c46.081,12.429 42.192,25.967 120.904,36.366c-1.922,1.816 -2.709,0.192 -4.693,2.067c-1.281,1.21 0.278,1.681 -0.675,3.005c-3.654,5.076 -20.568,10.978 -22.481,11.645c-1.281,-1.549 -0.924,-4.063 -2.204,-5.612c-0.735,-0.889 -0.909,-0.544 -11.743,-2.222c-31.562,-4.886 -73.192,-27.286 -100.696,-34.096c-47.06,-11.651 -64.029,23.528 -45.408,19.539c55.048,-11.793 51.793,13.019 129.087,32.23c-1.787,1.572 -2.355,4.245 -4.142,5.817c-3.975,3.497 -21.532,8.486 -23.467,9.036c-1.233,-1.588 -0.263,-4.254 -1.495,-5.842c-0.292,-0.376 -10.188,-1.764 -12.978,-2.43c-24.96,-5.953 -22.958,6.476 -53.637,15.223c-36.322,10.355 -68.078,9.697 -83.706,-33.367c-1.999,-5.508 -6.695,-4.497 -7.652,-0.046c-6.22,28.936 10.036,49.443 12.738,52.851c-8.017,4.825 -7.965,5.397 -17.3,5.324c-1.957,-17.124 -8.399,-12.453 -24.7,-17.809c-80.507,-26.451 -30.091,-123.934 21.786,-147.965c1.067,-0.494 2.745,0.13 3.428,-0.827c0.849,-1.19 -0.565,-3.186 0.283,-4.376c5.35,7.371 7.355,10.866 7.923,11.856c-7.257,10.011 -8.186,8.882 -18.01,16.081c-5.639,4.133 -48.6,35.619 -41.867,76.709c2.959,18.061 19.91,28.973 21.901,29.842c15.978,6.974 -7.266,-15.459 -4.528,-42.759c4.01,-39.975 45.705,-56.257 46.764,-56.832c8.843,19.624 -12.369,15.764 -23.441,41.12c-4.46,10.214 -3.123,44.578 5.153,35.339c4.308,-4.809 -7.131,-10.846 36.529,-71.96c8.888,-10.769 17.374,-16.415 17.868,-17.663c0.638,-1.615 -3.864,-2.475 -3.226,-4.089c5.81,2.766 11.62,5.532 17.43,8.297c-6.768,6.971 -23.077,23.545 -32.129,37.911c-17.954,28.494 -0.026,49.881 2.395,40.611c2.988,-11.441 17.433,-66.752 103.216,-105.796c16.289,-7.414 17.722,-1.161 34.664,-7.245c14.147,9.336 18.508,8.476 20.239,8.838c0.437,0.569 5.467,7.109 5.467,7.109c1.66,1.171 32.687,7.33 36.261,7.541c17.72,1.044 50.807,-42.974 58.717,-68.754c8.099,-26.398 3.094,-27.253 -1.023,-34.318c10.222,-12.683 11.044,-11.848 24.731,-17.207c0.392,4.887 -0.803,4.82 0.777,9.685c9.135,28.121 -31.15,90.531 -51.859,107.144c-3.793,3.042 -2.323,3.815 -3.522,5.784c0.504,1.006 1.008,2.012 1.512,3.018c6.692,-0.366 6.728,0.562 12.826,-1.859c9.86,-3.915 34.313,-36.29 41.789,-51.205c20.674,-41.245 20.846,-54.682 11.804,-75.333c2.638,-1.767 5.276,-3.533 7.914,-5.3c10.931,-3.138 10.822,-3.179 12.297,-3.424c0.806,1.301 8.746,14.12 17.176,8.433c7.225,-4.875 1.981,-6.463 -3.647,-13.07c-1.441,-0.89 -2.882,-1.78 -4.323,-2.67c1.845,-2.334 2.355,-1.568 4.313,-4.044c0.31,-0.392 0.257,-0.385 3.468,-5.202c1.902,-1.294 3.803,-2.588 5.705,-3.881l1.125,-4.356c2.726,-8.561 1.894,-8.687 6.204,-16.356Z" style="fill:#b86c27;"/><path d="M2330.49,1831.545c-4.025,12.953 -3.256,13.238 -33.195,70.203c-67.221,127.901 -182.943,227.333 -303.099,251.956c-23.045,5.226 -97.988,27.021 -183.096,-15.516c-37.095,-18.54 -79.786,-64.62 -77.841,-68.823c2.883,-6.231 22.457,13.381 69.049,18.448c230.909,25.112 466.722,-173.192 507.374,-232.215c12.862,-18.674 10.229,-22.847 20.808,-24.053Z" style="fill:#e1decc;"/><path d="M2048.939,2866.359c-52.04,57.044 -158.737,20.905 -148.291,-101.96c3.979,-46.802 38.409,-88.172 76.227,-92.727c68.943,-8.304 67.273,30.198 78.131,20.896c0.302,-0.259 6.817,-22.008 30.464,-20.874c30.438,1.46 25.941,16.211 26.139,134.554c0.095,56.58 3.434,82.355 -26.201,83.071c-14.079,0.34 -26.337,-8.94 -29.426,-16.268c-2.023,-4.798 -2.538,-4.333 -7.042,-6.691Z" style="fill:#faf6db;"/><path d="M817.222,1743.899c8.373,-3.275 8.4,-4.056 8.91,-3.485c0.367,0.41 0.366,0.409 1.783,6.649c10.534,46.404 169.478,199.556 336.492,247.24c69.851,19.943 73.375,10.857 83.106,20.548c-6.733,14.708 -48.034,104.925 -195.094,53.146c-25.464,-8.966 -23.302,-14.783 -25.335,-13.699c-2.761,1.471 -2.587,6.241 -5.348,7.712c-11.33,-7.414 -12.168,-10.624 -23.25,-19.111c-55.692,-42.648 -145.433,-150.792 -181.263,-299Z" style="fill:#ede9d5;"/><path d="M2384.115,2789.237c12.024,-32.563 15.296,-30.891 29.901,-62.451c41.619,-89.936 70.592,-64.364 141.188,-26.886c59.841,31.768 68.699,49.349 37.378,105.751c-36.413,65.572 -47.488,113.613 -128.586,68.399c-66.619,-37.141 -85.462,-38.914 -79.88,-84.812Z" style="fill:#f8f3d7;"/><path d="M2124.106,1657.85c19.658,1.475 18.715,4.573 55.548,21.254c22.145,10.029 35.58,48.29 16.04,70.558c-15.44,17.596 -27.908,16.915 -39.293,19.822c-31.625,8.075 -31.765,24.104 -47.192,57.018c-1.899,4.052 -15.911,33.946 -35.994,42.823c-25.077,11.085 -44.247,-4.919 -53.499,-10.375c-41.065,-24.213 -81.758,5.759 -83.052,6.958c-3.894,3.61 -40.457,37.511 -62.669,21.878c-27.553,-19.392 8.065,-50.339 -0.68,-61.013c-19.076,-23.281 -5.631,-45.504 62.099,-103.808c13.476,3.21 13.813,2.402 15.7,4.773c2.643,3.32 2.095,3.625 0.036,7.282c-3.026,5.377 -28.785,51.144 -15.846,75.483c5.821,10.949 77.016,-5.67 99.284,-71.204c1.674,-0.052 5.788,-2.903 12.686,1.712c17.887,11.969 53.258,15.42 72.225,-0.003c5.206,-5.99 11.523,-9.734 5.095,-22.98c-14.203,-29.266 -37.477,-27.387 -22.125,-40.633c11.084,-9.563 9.723,-10.931 21.638,-19.544Z" style="fill:#d6552f;"/><path d="M1090.81,2839.129c7.756,56.361 -88.498,53.662 -96.846,52.616c-130.522,-16.358 -119.789,-187.194 -29.646,-215.471c98.76,-30.98 146.826,57.134 132.808,104.729c-5.71,19.387 -18.795,15.946 -107.541,15.729c-12.55,-0.031 -30.095,-2.633 -31.809,5.377c-2.009,9.395 23.24,57.722 82.091,34.076c19.191,-7.711 30.549,-27.719 50.943,2.944Z" style="fill:#f9f7dd;"/><path d="M1210.647,1036.58c2.396,0.881 2.732,-0.126 4.604,1.694c6.728,6.539 6.789,6.181 14.96,11.064c95.132,56.847 94.837,56.955 106.476,63.299c76.724,41.817 76.191,42.564 82.995,45.923c87.079,42.992 148.517,118.225 254.241,40.68c16.785,-12.311 21.486,-10.685 28.807,-17.397c6.12,-5.61 47.354,-28.807 58.892,-36.502c86.547,-57.723 138.951,-84.211 153.59,-96.615c10.231,-8.67 10.412,-1.419 10.432,-0.583c1.036,41.675 -32.155,61.608 -37.275,64.682c-41.281,24.791 -40.471,25.985 -44.231,27.812c-17.551,8.529 -17.423,8.292 -46.909,27.244c-48.193,30.975 -52.664,23.534 -91.188,54.654c-0.849,-1.585 -2.88,-2.312 -3.729,-3.897c-1.689,-3.15 -0.249,-3.168 1.615,-8.22c1.544,-4.184 0.491,-7.058 0.281,-7.631c-3.7,-10.098 -9.981,-4.275 -10.446,-4.157c-1.351,0.343 -2.893,-0.431 -4.18,0.103c-9.694,4.025 0.624,25.591 1.993,28.996c-0.428,0.435 0.649,1.382 0.221,1.818c-1.382,1.407 -3.419,1.975 -5.045,3.092c-1.403,0.964 -13.082,8.991 -17.259,12.444c-13.1,10.829 -15.129,6.96 -29.495,15.899c-76.256,47.45 -136.183,-11.872 -205.39,-49.124c-9.322,-5.018 -62.496,-33.64 -115.167,-65.193c-37.237,-22.307 -78.47,-44.35 -87.529,-50.025c-26.496,-16.596 -24.117,-43.672 -24.831,-56.918c1.189,-1.047 2.378,-2.095 3.567,-3.142Z" style="fill:#a66236;"/><path d="M2760.936,1452.532l3.507,0.143c0.714,0.803 2.505,-0.971 3.218,-0.169c0.438,0.492 -6.881,124.505 -72.019,246.504c-30.941,57.949 -29.05,59.056 -67.899,111.863c-55.532,75.483 -73.181,87.793 -114.336,127.498c-6.054,5.841 -34.502,26.197 -37.565,28.389c-1.103,0.79 -1.643,3.274 -2.925,2.83c-2.684,-0.929 -3.411,-5.024 -6.094,-5.954c1.361,-5.089 12.211,-41.579 13.285,-45.191c0.854,1.035 -1.724,2.896 -0.87,3.931c4.971,6.024 8.408,7.934 10.329,0.54c0.408,-1.572 -0.597,-3.369 0.018,-4.872c1.688,-4.123 2.875,-3.366 4.184,-7.619c4.552,-14.789 5.092,-14.648 9.737,-70.822c1.286,-15.552 -1.812,-16.202 -2.166,-18.077c-0.598,-3.168 28.306,-24.276 58.941,-52.931c121.829,-113.955 184.212,-264.798 200.657,-316.064Z" style="fill:#cccca4;"/><path d="M2055.91,972.927c1.949,1.694 4.589,2.462 6.538,4.156c1.297,1.127 2.675,2.486 3.035,4.167c0.41,1.915 -1.695,4.016 -0.9,5.805c0.217,0.487 8.35,4.644 10.649,15.653c2.034,9.739 17.944,52.238 -29.753,97.042c-5.802,5.45 -38.084,24.197 -60.004,24.718c-22.477,0.535 -22.813,2.052 -38.829,17.887c-10.275,10.159 -94.859,56.373 -199.691,124.799c-1.629,1.063 -1.706,0.873 -20.812,12.578c-13.673,8.377 -12.765,9.716 -27.409,16.075c-12.073,5.243 -54.018,51.906 -142.737,32.026c-20.987,-4.703 -18.394,-10.143 -28.574,-14.322c-25.418,-10.435 -32.364,-11.273 -51.769,-26.939c-2.087,-1.685 -14.074,-5.561 -35.326,-19.123c-7.022,-4.481 -129.166,-73.449 -141.135,-83.638c-14.922,-12.702 -44.154,-22.88 -49.487,-29.45c-9.945,-12.249 -15.196,-4.559 -26.217,-15.522c-1.355,-1.348 -12.868,-12.801 -12.936,-20.089c-0.02,-2.107 1.751,-3.972 1.732,-6.079c29.998,22.352 80.877,44.76 193.368,111.421c32.815,19.446 39.814,20.107 52.056,30.625c3.326,2.858 64.835,39.058 85.803,44.129c82.459,19.944 100.184,-14.245 253.215,-102.764c11.813,-6.833 17.291,-14.656 43.041,-26.935c5.529,-2.637 4.127,-4.944 65.4,-39.82c28.156,-16.026 25.302,-34.332 46.931,-34.603c30.803,-0.386 98.187,-17.055 103.652,-88.499c1.276,-16.682 0.555,-16.552 0.159,-33.297Z" style="fill:#eacfa7;"/><path d="M1243.547,2670.994c24.658,-1.529 86.176,-4.002 89.199,89.359c0.259,8.003 2.109,65.123 0.773,100.086c-1.285,33.615 -38.58,34.397 -52.168,20.71c-28.012,-28.217 22.765,-172.336 -54.693,-155.984c-42.707,9.016 -30.048,68.399 -31.807,135.29c-1.019,38.761 -55.76,37.753 -60.725,4.32c-0.573,-3.858 -1.157,-165.102 -1.123,-166.854c0.416,-21.448 19.665,-29.222 35.881,-25.772c14.728,3.134 18.709,19.965 19.251,22.255c4.693,19.841 7.84,-17.02 55.413,-23.411Z" style="fill:#f9f3d8;"/><path d="M1480.969,2838.272c5.606,-1.754 16.835,-3.564 24.193,-15.915c6.202,-10.411 6.817,-22.309 6.921,-24.329c3.136,-60.735 -10.334,-118.443 19.248,-124.696c51.424,-10.869 42.073,50.612 42.083,53.741c0.236,72.127 12.542,170.79 -113.128,164.344c-40.066,-2.055 -73.288,-28.664 -81.789,-64.666c-6.743,-28.557 -3.166,-128.109 -3.071,-129.035c3.123,-30.587 31.592,-28.906 47.527,-20.698c39.157,20.172 -27.235,169.808 58.016,161.253Z" style="fill:#f9f6dc;"/><path d="M720.776,1942.993c10.879,7.078 13.878,14.017 16.065,16.214c26.652,26.777 27.909,54.27 36.869,56.336c0.822,0.189 1.356,-1.477 2.178,-1.287c-0.063,-16.764 -16.17,-85.541 -2.963,-78.856c5.186,2.625 25.232,101.029 42.674,119.082c1.055,-1.739 4.514,-0.641 3.592,-10.666c-2.84,-30.879 -2.719,-38.929 3.67,-37.399c10.916,2.613 8.845,35.616 21.261,53.711c14.544,21.196 19.33,17.272 37.795,32.688c17.11,14.285 31.587,16.432 48.156,31.669c6.238,5.737 27.353,18.59 29.809,20.085c11.585,7.052 12.691,5.164 22.464,14.577c16.912,16.289 20.313,11.409 73.253,48.074c6.76,4.682 31.378,21.732 88.777,51.82c28.295,14.832 30.25,10.151 65.071,28.292c17.906,9.329 17.832,9.147 29.742,12.582c3.121,0.9 2.916,1.377 37.125,16.429c2.821,1.241 12.699,8.272 14.091,8.774c6.433,2.317 8.005,-0.116 31.484,12.19c13.462,7.056 14.362,4.917 27.483,12.808c3.126,1.88 8.921,5.365 44.342,10.617c7.668,1.137 7.75,0.203 8.367,0.467c8.192,3.508 4.562,6.295 5.791,7.991c-0.388,3.007 -4.686,36.359 -5.738,37.467c-0.98,1.033 -3.285,-0.798 -4.265,0.235c-37.759,-7.995 -63.827,-26.283 -130.011,-61.542c-76.537,-40.773 -76.28,-40.905 -152.524,-82.084c-54.571,-29.474 -131.409,-66.099 -170.943,-91.612c-4.937,-3.186 -66.675,-32.077 -97.699,-55.891c-12.406,-10.834 -13.595,-9.248 -24.174,-21.706c-0.296,-0.349 -0.331,-0.264 -4.475,-3.568c3.814,-8.768 6.304,-9.596 0.522,-17.39c-8.475,-11.425 -9.237,-1.2 -9.277,-0.458c-0.26,4.926 3.979,3.585 3.7,8.607c-0.121,2.179 -2.803,3.68 -2.925,5.859c-36.725,-27.051 -84.875,-114.081 -87.111,-135.037c-0.504,-4.727 -1.07,-4.458 -2.18,-9.079Z" style="fill:#dfb57f;"/><path d="M1420.334,1964.694c-22.235,81.978 -75.342,124.983 -85.157,132.93c-26.016,21.068 -74.233,34.932 -91.572,36.194c-77.254,5.621 -147.194,-16.184 -221.87,-71.809c2.761,-1.471 2.587,-6.241 5.348,-7.712c2.033,-1.084 -0.129,4.734 25.335,13.699c147.061,51.779 188.361,-38.438 195.094,-53.146c0.99,-0.105 1.672,1.458 2.662,1.353c2.246,-0.238 4.11,-2.302 6.368,-2.311c12.47,-0.048 12.122,2.697 24.751,2.339c34.672,-0.983 79.459,-12.866 79.598,-12.917c49.708,-18.256 44.029,-30.478 50.255,-37.79c1.949,-2.289 3.101,-2.393 3.436,-2.424c3.135,-0.283 2.632,1.875 5.75,1.593Z" style="fill:#b2c3b7;"/><path d="M1793.916,2798.035c-8.907,11.842 -21.643,36.601 -91.792,35.069c-1.535,-0.034 -16.973,-0.371 -18.92,-3.256c-0.414,-0.614 -0.244,-0.699 -0.682,-169.46c-0.034,-12.92 4.392,-14.456 36.251,-12.845c8.89,0.449 84.166,-4.871 89.954,87.935c2.302,36.918 -11.956,58.28 -14.811,62.558Z" style="fill:#30714e;"/><path d="M1469.485,834.707c16.969,28.994 -4.436,31.907 -28.508,56.271c-19.736,19.976 -49.214,80.509 28.062,131.48c17.24,11.372 17.488,11.012 37.537,15.849c1.172,1.121 1.336,7.332 12.174,11.64c24.831,9.871 26.722,10.065 29.186,10.318c2.98,0.306 36.156,3.713 37.291,3.356c7.281,-2.291 6.489,-10.404 33.67,-3.777c15.672,3.821 17.311,7.472 29.491,-3.112c2.149,-1.867 2.874,-1.521 3.121,-1.403c3.791,1.811 1.92,3.811 5.617,5.576c-12.075,14.407 -45.923,37.973 -79.913,42.422c-86.064,11.264 -125.073,-18.391 -151.348,-41.383c-19.286,-16.876 -12.143,-21.955 -25.4,-39.027c0.625,-1.781 3.207,-2.386 3.832,-4.167c0.576,-1.641 -0.649,-1.388 -5.475,-21.042c-1.499,-6.106 -59.378,-103.191 39.711,-151.209c21.481,-10.409 25.133,-6.262 26.051,-6.664c2.165,-0.95 2.736,-4.178 4.901,-5.127Z" style="fill:#dae072;"/><path d="M814.823,1702.029c-2.395,-7.66 -16.336,-52.237 -8.583,-99.949c1.281,-7.882 20.461,-5.014 13.963,25.362c-12.356,57.759 54.924,133.794 63.221,143.17c20.168,22.792 139.004,157.09 326.861,194.625c147.957,29.562 187.013,-33.1 195.52,-46.749c19.71,-31.623 7.03,-56.326 21.391,-57.579c2.333,-0.204 9.011,-0.786 6.37,28.574c-3.352,37.259 -10.259,46.781 -14.322,54.509c-14.105,11.222 -61.362,75.714 -225.211,40.031c-49.393,-10.757 -138.556,-48.782 -187.216,-82.782c-133.603,-93.353 -148.473,-129.081 -191.995,-199.211Z" style="fill:#f1faf2;"/><path d="M1665.888,850.147c-0.186,1.958 -3.68,2.499 -3.867,4.457c-0.136,1.431 3.819,8.422 4.215,9.121c1.619,2.861 4.314,2.713 1.596,9.383c-3.059,7.509 -7.312,62.476 -82.426,66.143c-42.182,2.059 -55.157,-29.207 -66.656,-20.899c-2.181,1.575 -4.051,3.553 -6.232,5.129c-22.35,-73.199 84.65,-125.573 153.369,-73.334Z" style="fill:#f3ae32;"/><path d="M814.823,1702.029c43.522,70.129 58.392,105.858 191.995,199.211c48.66,34 137.823,72.025 187.216,82.782c163.849,35.684 211.106,-28.809 225.211,-40.031c0.536,1.721 3.183,2.205 3.718,3.925c0.074,0.239 -2.41,15.437 -2.63,16.778c-3.118,0.282 -2.615,-1.876 -5.75,-1.593c-0.335,0.03 -1.487,0.134 -3.436,2.424c-6.226,7.312 -0.547,19.533 -50.255,37.79c-0.139,0.051 -44.927,11.934 -79.598,12.917c-12.628,0.358 -12.281,-2.387 -24.751,-2.339c-2.258,0.009 -4.123,2.072 -6.368,2.311c-0.99,0.105 -1.672,-1.458 -2.662,-1.353c-9.731,-9.691 -13.255,-0.605 -83.106,-20.548c-167.015,-47.683 -325.959,-200.836 -336.492,-247.24c-1.416,-6.24 -1.415,-6.239 -1.783,-6.649c-0.511,-0.57 -0.537,0.21 -8.91,3.485c-0.425,-2.033 -5.308,-25.409 -5.308,-25.409c-1.698,-11.43 -2.551,-11.315 -2.187,-12.241c0.808,-2.052 4.288,-2.169 5.096,-4.221Z" style="fill:#8ba297;"/><path d="M1693.769,781.319c6.395,7.325 4.981,10.898 16.655,10.777c8.587,-0.089 8.438,-0.546 16.705,1.069c57.177,11.17 70.628,20.291 75.896,23.863c88.992,60.341 48.67,158.574 48.159,159.595c-19.428,38.887 -36.269,39.108 -44.669,42.049c0.895,-20.397 0.84,-30.609 0.825,-33.271c-0.074,-13.589 -4.774,-13.164 -3.509,-32.872c16.492,-53.101 -2.517,-62.106 -23.96,-108.226c-23.864,-51.327 -80.192,-41.984 -98.618,-42.277c-27.51,-0.437 -27.255,-5.538 -29.06,-8.194c8.192,-2.646 7.83,-3.243 16.318,-5.271c0,0 23.238,-6.663 25.259,-7.242Z" style="fill:#d5dd6e;"/><path d="M1119.489,1506.423c4.134,-10.714 2.473,-11.133 7.059,-21.587c6.284,-14.324 19.453,13.715 41.725,-8.219c35.283,-34.746 24.726,31.121 35.019,40.628c4.288,3.961 40.541,11.908 36.429,26.458c-0.488,1.729 -2.798,2.939 -2.595,4.724c0.386,3.401 3.809,5.972 4.195,9.373c-24.359,27.821 -2.897,30.884 -1.421,44.23c1.791,16.189 -19.578,-10.157 -55.591,15.21c-8.726,6.146 -9.105,5.957 -19.487,4.424c-10.391,-1.535 -10.282,-0.293 -21.521,0.681c2.573,-28.311 6.82,-29.086 42.595,-44.458c19.536,-8.395 13.957,-13.443 12.761,-14.413c-3.919,-3.176 -46.663,20.32 -41.247,1.324c7.305,-25.625 23.888,-62.652 11.549,-62.095c-2.823,0.127 -15.007,31.069 -21.12,57.681c-1.674,7.289 -6.445,7.569 -8.798,0.333c-7.19,-22.108 -6.241,-22.232 -13.945,-44.344c-0.4,-0.851 -1.779,-0.94 -2.179,-1.79c-0.301,-0.641 -0.254,-0.604 -3.428,-8.159Z" style="fill:#9dba49;"/><path d="M1034.912,1693.307c33.806,28.79 41.934,18.93 75.225,54.868c30.696,33.137 72.823,96.072 61.67,120.574c-0.795,1.746 -2.211,3.163 -3.006,4.91c-6.43,-1.471 -20.48,-4.685 -69.78,-43.914c-12.162,-9.677 -6.729,-62.158 -55.631,-85.276c-15.955,-7.543 -18.634,-9.654 -14.766,-37.817c2.599,-6.984 2.203,-6.976 6.288,-13.345Z" style="fill:#fbdeb5;"/><path d="M2044.256,2814.846c-1.537,2.522 -7.203,21.215 -37.999,24.826c-27.518,3.227 -55.728,-32.662 -41.979,-83.523c13.216,-48.891 93.243,-47.278 86.693,33.362c-1.085,13.352 -1.285,13.259 -6.714,25.336Z" style="fill:#2f6949;"/><path d="M2240.027,2838.259c-4.576,-2.028 -36.183,-16.032 -33.531,-52.823c0.005,-0.075 -2.194,-46.657 28.669,-59.033c75.014,-30.082 85.274,129.389 4.862,111.856Z" style="fill:#2c6c49;"/><path d="M1034.912,1693.307c7.613,-7.38 17.005,-17.616 40.985,-5.836c33.223,16.32 35.014,17.817 37.629,20.004c66.131,55.305 77.772,88.098 87.782,111.596c19.68,46.199 -8.772,58.661 -32.507,54.588c0.795,-1.746 2.211,-3.163 3.006,-4.91c11.152,-24.503 -30.974,-87.437 -61.67,-120.574c-33.291,-35.938 -41.418,-26.078 -75.225,-54.868Z" style="fill:#e49c58;"/><path d="M1693.769,781.319c5.876,-1.065 48.108,-8.723 74.595,-2.759c139.868,31.494 144.516,234.202 38.012,269.967c-11.9,3.996 -3.941,-13.358 0.14,-29.855c8.4,-2.941 25.241,-3.162 44.669,-42.049c0.51,-1.021 40.832,-99.254 -48.159,-159.595c-5.268,-3.572 -18.719,-12.693 -75.896,-23.863c-8.267,-1.615 -8.118,-1.158 -16.705,-1.069c-11.674,0.121 -10.26,-3.452 -16.655,-10.777Z" style="fill:#95b451;"/><path d="M1392.353,1023.468c2.704,-0.184 5.408,-0.367 8.112,-0.551c13.257,17.072 6.114,22.151 25.4,39.027c26.275,22.992 65.284,52.646 151.348,41.383c33.989,-4.448 67.838,-28.014 79.913,-42.422c4.897,-7.325 4.286,-7.437 8.765,-14.715l2.868,-2.691c0.776,0.015 9.702,0.19 9.702,0.19c0.977,0.555 0.095,2.64 1.072,3.195c-16.215,28.248 -40.366,90.621 -148.341,85.933c-31.718,-1.377 -135.754,-20.104 -138.838,-109.348Z" style="fill:#678d38;"/><path d="M1996.947,1355.637c2.655,-3.583 5.636,-8.445 13.34,-16.183c0.779,-0.782 24.909,-25.017 13.051,4.468c-19.484,48.45 -19.08,53.595 13.856,93.959c49.729,60.943 -13.334,138.98 -22.188,137.561c-14.495,-2.323 17.067,-43.747 6.557,-81.289c-8.802,-31.44 -69.146,-59.844 -24.617,-138.516Z" style="fill:#b48258;"/><path d="M1926.149,1711.77c-8.613,12.044 -53.658,37.302 -72.382,70.562c-9.195,16.333 -14.626,9.825 -29.664,21.218c-32.501,24.624 -45.523,46.316 -54.216,61.678c-23.363,13.298 -51.067,65.086 -53.592,107.809c-2.765,46.788 19.425,53.091 19.502,53.861c0.361,3.607 -5.651,5.894 -5.29,9.501c-2.886,-2.496 -22.005,-16.02 -28.78,-42.547c-1.674,-6.555 -9.462,-37.051 12.419,-83.65c48.906,-104.151 184.17,-187.152 188.596,-190.301c17.798,-12.664 19.283,-8.861 23.408,-8.132Z" style="fill:#f5f5e9;"/><path d="M2226.487,1645.162c0.125,-1.856 -0.221,-3.723 -0.096,-5.579c0.788,-11.672 46.316,8.115 50.057,9.741c13.489,5.862 64.114,7.349 62.81,86.11c-0.177,10.717 -0.624,10.567 -3.804,20.813c-3.41,10.985 2.985,10.097 5.545,13.235c-12.474,25.38 -16.976,34.598 -26.173,45.396c-0.501,-1.982 -3.754,-2.435 -4.255,-4.417c-0.068,-0.27 9.749,-18.58 8.186,-33.378c-4.687,-44.375 -20.264,-60.79 -48.967,-80.756c-17.206,-11.968 -2.655,-28.564 -43.303,-51.165Z" style="fill:#d1c8b1;"/><path d="M1665.888,850.147c25.216,22.402 34.76,44.212 18.144,76.116c-4.309,5.008 -29.731,34.555 -73.693,37.26c-5.756,0.354 -76.069,10.545 -97.82,-40.041c2.181,-1.575 4.051,-3.553 6.232,-5.129c11.499,-8.308 24.474,22.958 66.656,20.899c75.114,-3.667 79.366,-58.634 82.426,-66.143c2.718,-6.67 0.023,-6.522 -1.596,-9.383c-0.396,-0.7 -4.351,-7.69 -4.215,-9.121c0.186,-1.958 3.68,-2.499 3.867,-4.457Z" style="fill:#e48721;"/><path d="M2160.418,1639.573c-25.014,-3.128 -32.525,2.464 -30.706,-8.747c0.846,-5.213 16.598,-7.85 18.168,-8.113c130.974,-21.93 250.033,19.235 193.119,146.77c-2.56,-3.139 -8.955,-2.251 -5.545,-13.235c3.181,-10.246 3.627,-10.096 3.804,-20.813c1.304,-78.761 -49.321,-80.247 -62.81,-86.11c-3.742,-1.626 -49.27,-21.413 -50.057,-9.741c-0.125,1.856 0.221,3.723 0.096,5.579c-17.612,-6.545 -25.059,-13.113 -66.069,-5.589Z" style="fill:#f6f5e6;"/><path d="M1010.17,1556.34c0.279,-2.445 -5.272,-8.448 12.781,-12.424c57.024,-12.558 101.078,86.09 61.738,102.292c-15.255,6.283 -19.577,11.488 -27.184,-3.105c-13.703,-26.287 -13.444,-26.149 -23.34,-44.312c-12.033,-21.298 -12.042,-21.1 -23.995,-42.451Z" style="fill:#e4e8a5;"/><path d="M1097.716,1659.142c9.331,17.514 26.843,19.235 35.536,28.408c3.761,3.969 3.263,5.526 6.331,4.574c2.295,-0.713 3.572,-3.478 5.868,-4.191c2.207,1.945 4.415,3.89 6.622,5.836c5.026,8.946 5.933,7.977 13.936,14.707c1.588,1.621 1.424,4.486 3.012,6.107c1.397,1.426 3.982,1.146 5.434,2.515c1.505,1.42 1.841,3.721 2.996,5.438c1.865,2.771 3.253,0.596 5.506,2.938c1.348,1.401 1.218,3.792 2.459,5.288c2.177,2.622 3.77,2.679 4.167,2.694c2.738,0.099 1.636,-2.485 4.375,-2.386l4.31,3.708c0.402,0.731 -1.025,3.439 9.913,15.437c25.725,28.218 39.837,63.281 41.038,81.034c0.094,1.395 -0.993,2.872 -0.467,4.167c0.84,2.07 3.417,3.107 4.257,5.177c-10.153,5.004 -10.639,5.844 -21.28,1.78c-24.645,-9.415 2.598,-39.244 -93.417,-130.642c-31.494,-29.98 -58.711,-33.452 -57.856,-43.135c0.383,-4.343 15.752,-8.997 17.259,-9.453Z" style="fill:#fde6bc;"/><path d="M891.969,1629.05c1.3,1.828 45.492,70.094 49.44,76.193c6.285,9.709 44.469,66.279 15.834,49.026c-5.288,-3.186 -8.527,-6.526 -30.076,-0.881c-5.606,-4.078 -9.555,-2.899 -7.034,-9.39c0.619,-1.594 2.402,-2.552 3.021,-4.146c0.125,0.028 3.746,-1.206 7.413,1.635c0.614,0.476 5.499,4.26 9.449,2.263c8.579,-4.337 3.041,-7.283 -5.322,-12.017c-2.914,-1.263 -5.828,-2.525 -8.742,-3.788l-1.811,-2.384c-0.829,-9.461 -2.05,-9.083 -9.071,-15.45c-6.57,-5.958 -7.032,-5.329 -13.287,-5.864c-9.798,-0.838 -11.119,-12.863 -4.232,-15.55c0.11,-0.043 15.436,0.102 -0.309,-19.502c-7.619,-9.486 -14.782,-11.97 -18.684,4.003c-6.096,24.955 10.419,57.093 12.718,61.567c4.001,7.785 6.634,6.841 6.276,13.152c-0.128,2.248 -4.218,2.925 -4.346,5.173c-17.962,-16.504 -20.286,-27.203 -27.024,-43.301c-2.569,-8.41 -15.182,-39.912 4.419,-68.921c1.955,-2.894 9.613,-10.592 11.744,-12.018c4.267,-2.853 4.526,-0.984 9.624,0.202Z" style="fill:#f6865c;"/><path d="M2218.455,1910.188c-23.359,23.687 -35.445,31.085 -45.244,34.59c-35.973,-4.39 -42.539,27.695 -154.062,-14.593c-35.54,-13.476 -44.891,-5.286 -42.386,-15.774c0.366,-1.531 12.172,-6.633 13.278,-7.111c33.972,-14.683 82.927,38.012 157.943,20.089c54.829,-13.099 71.895,-44.146 70.471,-17.202Z" style="fill:#fbd58b;"/><path d="M955.018,1401.766c-0.606,28.589 8.719,62.395 -15.797,65.749c-3.658,0.501 -3.721,0.016 -3.95,0.235c-0.643,0.615 -0.379,0.727 -5.143,9.854c-13.322,-24.939 -14.27,-29.048 -2.069,-36.332c18.247,-10.892 16.529,-13.751 16.823,-35.047c0.512,-37.066 35.472,-38.05 55.749,0.853c17.501,33.577 25.365,24.888 42.237,30.397c14.596,4.766 28.943,33.443 20.327,41.988c-14.194,14.077 -13.344,15.234 -14.699,35.184c-0.763,11.244 -13.95,6.373 -20.769,5.488c3.264,-7.594 2.962,-7.754 3.522,-8.195c6.052,-4.762 8.232,-3.529 8.357,-9.847c0.173,-8.714 2.758,-8.104 3.856,-16.719c0.682,-5.354 2.93,-3.173 4.603,-3.953c10.075,-4.693 10.115,-16.609 -0.137,-15.382c-23.77,2.846 -22.41,27.731 -23.793,36.308c-1.997,-2.037 -5.215,-2.57 -7.213,-4.608c-4.471,-4.561 10.909,-21.425 -7.345,-44.715c-0.768,-0.979 -5.901,-7.529 -6.917,-13.934c-0.213,-1.344 -2.256,-14.22 -4.192,-16.483c-0.702,-0.82 -2.653,0.286 -3.17,-0.662c-1.93,-3.54 2.218,-4.23 -0.094,-7.362c-1.246,-1.688 -3.33,-2.593 -4.717,-4.167c-3.138,-3.559 -0.921,-4.558 -3.703,-8.333c-3.886,-5.272 -5.66,-3.146 -9.503,-8.333c-4.593,-6.2 -5.056,-6.412 -12.698,-6.247c-1.772,0.038 -3.874,-0.707 -5.306,0.338c-1.05,0.766 0.131,2.718 -0.466,3.873c-1.674,3.241 -3.07,2.063 -4.346,5.442c-0.883,2.339 1.441,2.252 0.552,4.609Z" style="fill:#77a24a;"/><path d="M1769.887,1865.228c0.233,20.269 -6.156,36.063 -5.292,53.521c1.093,22.092 -6.632,20.332 -11.611,41.889c-13.903,60.194 -5.209,69.102 5.578,84.087c0.375,0.522 0.13,0.581 1.76,7.837c-17.928,-6.959 -17.438,-7.609 -29.815,-16.165c-0.361,-3.607 5.651,-5.894 5.29,-9.501c-0.077,-0.77 -22.267,-7.073 -19.502,-53.861c2.525,-42.723 30.229,-94.511 53.592,-107.809Z" style="fill:#c2b9a3;"/><path d="M980.309,1561.034l2.954,7.121c-9.994,10.629 -9.991,11.689 -9.987,13c0.012,3.642 10.745,8.142 11.823,8.594c1.688,-2.882 3.376,-5.764 5.064,-8.646c9.928,12.917 11.116,12.13 14.735,21.624c0.439,1.153 1.483,3.89 8.346,12.969c2.45,3.241 3.089,3.122 3.451,3.054c4.988,-0.934 3.228,-4.304 8.256,-5.245c28.39,47.014 28.999,50.484 23.782,52.437c-23.317,8.727 -23.817,8.655 -25.977,8.342c-0.604,-0.087 -0.522,-0.216 -7.048,-2.919c-3.496,-2.292 -3.814,-1.639 -47.324,-22.173c2.252,-1.479 4.221,-3.362 6.473,-4.84c2.009,-1.319 0.583,-1.657 -1.106,-5.062c-21.745,-43.845 -7.792,-76.055 4.738,-80.733c0.96,-0.358 0.86,2.836 1.82,2.478Z" style="fill:#dc643e;"/><path d="M1469.485,834.707c-2.165,0.95 -2.736,4.178 -4.901,5.127c-0.918,0.403 -4.57,-3.745 -26.051,6.664c-99.089,48.018 -41.211,145.103 -39.711,151.209c4.826,19.654 6.051,19.401 5.475,21.042c-0.625,1.781 -3.207,2.386 -3.832,4.167c-2.704,0.184 -5.408,0.367 -8.112,0.551c-15.115,-39.964 -62.848,-73.864 -13.625,-149.354c13.956,-21.404 64.819,-67.993 89.006,-41.798c0.67,0.726 1.081,1.666 1.751,2.392Z" style="fill:#a9c55c;"/><path d="M2085.337,1618.173c-41.965,23.188 -46.454,76.657 -56.459,66.151c-9.857,-10.352 21.53,-90.866 81.52,-99.325c23.557,-3.322 -1.213,80.674 -45.297,101.344c-1.331,0.624 -31.074,14.57 -18.321,-1.445c7.207,-9.05 26.318,-43.13 35.492,-52.936c0.839,-0.897 9.496,-10.15 7.371,-13.473c-0.776,-1.212 -3.53,0.897 -4.306,-0.315Z" style="fill:#8cb358;"/><path d="M1186.153,1641.703c0.249,2.061 -0.687,4.153 -0.437,6.214c0.096,0.79 9.365,13.223 28.14,25.564c10.62,5.971 10.376,6.147 21.803,10.05c0.127,2.577 -4.536,3.786 -4.409,6.364c0.094,1.902 3.403,1.774 4.87,2.989c21.597,17.893 29.586,28.087 31.772,30.876c19.364,24.708 16.571,26.284 33.014,53.229c-0.191,1.462 -1.891,14.503 -6.974,17.061c-21.113,10.626 -3.782,-19.613 -63.038,-79.093c-71.417,-71.687 -107.045,-62.322 -87.765,-71.971c20.911,-10.465 36.21,-3.103 43.024,-1.284Z" style="fill:#fde6ba;"/><path d="M923.828,1506.03c-1.974,2.449 -5.555,-0.249 -7.48,9.282c-5.778,28.597 -3.052,28.808 -8.073,57.469c-3.57,-2.352 -7.139,-4.703 -10.709,-7.055c0.458,-2.259 2.578,-3.955 3.036,-6.214c0.785,-3.874 -0.268,-3.939 5.489,-49.098c4.36,-34.206 -20.354,-19.916 -35.954,-31.111c-9.618,-6.902 -27.393,-35.744 -34.998,-19.049c-8.303,18.227 12.971,30.86 -20.244,54.813c-21.917,15.805 -7.259,26.764 -10.208,36.149c-0.625,1.988 -2.252,3.562 -2.877,5.55c-17.578,-17.876 -20.853,-47.526 -2.852,-56.876c6.076,-3.156 22.676,-4.563 20.111,-27.003c-0.082,-0.716 -8.666,-34.545 11.841,-38.866c25.632,-5.4 31.725,34.398 58.61,35.955c21.648,1.254 22.755,5.582 34.308,36.053Z" style="fill:#cfee85;"/><path d="M1290.267,1900.978c11.274,24.09 12.227,26.036 -0.878,49.359c-9.626,-0.164 -9.573,0.55 -37.433,-1.551c-12.546,-29.894 2.575,-27.619 4.604,-26.828c4.764,1.857 0.653,18.512 15.508,15.902c23.422,-4.116 -22.6,-43.402 -33.341,-23.623c-3.496,6.437 -2.073,9.504 -9.018,15.427c-12.16,10.369 5.016,9.138 5.879,9.076c6.48,-0.465 4.731,4.314 5.032,5.011c0.76,1.762 2.322,3.101 3.082,4.863c-3.289,-0.202 -30.64,-1.883 -40.634,-6.769c-10.225,-4.999 -0.884,-37.711 16.989,-50.526c36.576,-26.227 65.778,6.151 70.211,9.66Z" style="fill:#d7eba8;"/><path d="M998.191,1797.16c-0.144,-0.156 -4.839,-2.187 -7.451,-8.074c-1.03,-2.321 -1.496,-4.865 -2.528,-7.186c-2.434,-5.473 -12.272,-13.688 -5.589,-20.226c29.102,-28.467 101.367,4.364 97.845,86.217c-0.488,11.34 -12.619,67.664 -28.573,12.555c9.861,-12.668 10.226,-13.364 7.369,-29.036c-0.881,-4.833 -7.712,-42.296 -40.499,-46.153c-10.386,-1.222 -14.841,2.65 -20.575,11.901Z" style="fill:#fcf1d7;"/><path d="M1335.125,926.227l4.749,0.667c-3.586,43.863 10.061,62.042 29.809,95.747c5.411,11.264 11.847,17.32 -0.684,18.305c-11.871,0.933 -11.896,-0.917 -29.575,2.114c-14.944,2.562 -60.939,-42.55 -11.948,-107.349c3.788,-5.01 3.826,-4.646 7.649,-9.485Z" style="fill:#bdd46c;"/><path d="M2090.785,1422.697c-0.625,-5.156 -4.421,-36.442 20.283,-61.669c9.661,-9.865 12.116,-0.234 11.04,3.368c-7.696,25.759 -17.466,29.426 6.653,61.319c44.895,59.365 -12.226,101.362 -14.173,101.278c-11.046,-0.473 4.587,-24.197 4.721,-41.584c0.232,-30.046 -17.53,-26.203 -28.523,-62.712Z" style="fill:#b38155;"/><path d="M1848.716,1893.613c-0.849,1.19 0.565,3.186 -0.283,4.376c-0.683,0.957 -2.361,0.333 -3.428,0.827c-51.877,24.031 -102.293,121.515 -21.786,147.965c16.302,5.356 22.744,0.686 24.7,17.809c-49.919,1.893 -56.96,-8.807 -57.77,-9.306c-64.566,-66.88 0.739,-141.92 45.696,-169.171c12.574,-7.622 11.983,5.324 12.87,7.499Z" style="fill:#fcd889;"/><path d="M2148.338,1965.032c-30.997,19.368 -31.147,20.229 -49.966,26.437c-78.712,-10.399 -74.823,-23.937 -120.904,-36.366c-35.448,-9.561 -53.286,-3.799 -40.994,-14.308c32.759,-28.005 127.381,42.364 194.755,23.157c11.341,-3.233 11.347,-3.685 12.694,-3.074c1.84,0.835 2.574,3.319 4.414,4.154Z" style="fill:#fcd384;"/><path d="M1309.263,1854.617c-6.116,2.018 -5.853,2.087 -11.499,4.926c-6.617,3.829 -6.382,3.891 -12.37,8.804c-10.064,-0.505 -10.207,0.057 -18.786,-4.956c1.843,-4.483 0.131,-6.742 30.222,-25.45c5.477,-3.405 62.003,-38.547 68.64,-42.28c20.969,-11.795 46.763,94.241 -16.583,117.336c-3.249,-2.815 -2.861,-2.953 -4.143,-6.863c1.09,-1.156 0.473,-3.347 1.563,-4.503c1.589,-1.685 4.039,-2.273 5.995,-3.514c28.444,-18.041 25.657,-94.567 -3.13,-73.467c-19.478,14.277 -17.661,16.048 -18.187,18.762c-1.284,6.616 -6.187,5.383 -21.721,11.205Z" style="fill:#fa8c6a;"/><path d="M1920.881,1459.907c-4.876,42.516 34.727,40.08 32.745,88.024c-1.106,26.756 -33.28,69.32 -33.857,45.767c-0.529,-21.595 28.115,-29.238 -12.004,-76.277c-31.979,-37.495 19.385,-100.683 20.113,-77.946c0.055,1.727 -0.891,1.276 -6.996,20.431Z" style="fill:#b18157;"/><path d="M1119.489,1506.423c-17.872,20.273 -22.063,12.573 -52.387,8.44c7.598,-35.046 32.049,1.233 42.19,-13.649c3.679,-5.399 -4.372,-56.713 26.705,-37.533c28.791,17.769 32.662,-27.058 56.535,-9.858c24.473,17.632 8.575,44.891 35.137,59.815c9.846,5.532 35.993,15.281 13.654,44.161c-0.386,-3.401 -3.809,-5.972 -4.195,-9.373c-0.203,-1.785 2.106,-2.995 2.595,-4.724c4.111,-14.551 -32.141,-22.498 -36.429,-26.458c-10.293,-9.507 0.263,-75.374 -35.019,-40.628c-22.272,21.934 -35.442,-6.105 -41.725,8.219c-4.586,10.454 -2.926,10.873 -7.059,21.587Z" style="fill:#cde38b;"/><path d="M1789.4,985.47c0.114,41.791 -4.254,57.95 -27,85.144c-23.343,27.908 -37.576,32.012 -38.965,32.59c-17.28,7.196 -70.685,11.392 -56.265,-2.203c11.629,-10.964 12.097,-10.421 12.99,-11.482c0.914,-1.086 0.543,-2.915 1.457,-4.001c2.2,0.996 3.817,9.328 40.251,-10.477c28.57,-15.53 42.497,-46.591 44.732,-51.574c0.588,-1.356 7.086,-16.342 6.675,-17.233c-1.157,-2.507 -4.513,-3.531 -5.67,-6.038c16.036,-14.821 14.887,-18.038 19.195,-16.457c0.977,0.359 1.622,1.372 2.599,1.731Z" style="fill:#799942;"/><path d="M2015.563,1049.147c-1.827,1.587 -6.526,5.67 -26.131,15.245c-10.416,5.087 -49.089,12.672 -48.966,-3.969c0.18,-24.185 -1.869,-32.383 7.42,-33.472c40.331,-4.731 43.25,0.27 74.695,-25.41c8.364,-6.83 9.707,-1.141 9.52,4.634c-0.841,25.957 -9.608,35.033 -16.538,42.973Z" style="fill:#9e5c33;"/><path d="M1194.367,1701.176c44.14,34.867 54.986,50.529 70.631,88.311c-1.763,1.08 -2.265,3.636 -4.027,4.716c-1.261,0.773 -3.04,-0.094 -4.413,0.455c-0.707,0.282 -7.316,2.925 -5.604,7.685c0.731,2.032 3.277,2.967 4.233,4.903c0.573,1.161 -1.164,4.145 0.105,3.884c1.311,-0.27 -0.214,-2.383 13.963,-9.224c2.595,16.541 5.7,23.114 -16.243,38.687c-0.84,-2.07 -3.417,-3.107 -4.257,-5.177c-0.525,-1.295 0.562,-2.773 0.467,-4.167c-1.201,-17.753 -15.313,-52.816 -41.038,-81.034c-10.938,-11.998 -9.511,-14.707 -9.913,-15.437c26.253,-12.148 -1.706,-16.336 -3.765,-14.957c-1.331,0.892 -3.507,5.639 -3.319,6.614c0.34,1.768 2.434,2.867 2.774,4.635c-2.74,-0.099 -1.637,2.485 -4.375,2.386c-0.397,-0.014 -1.99,-0.072 -4.167,-2.694c-1.242,-1.496 -1.112,-3.887 -2.459,-5.288c-2.253,-2.342 -3.642,-0.167 -5.506,-2.938c-1.156,-1.717 -1.491,-4.018 -2.996,-5.438c-1.452,-1.37 -4.037,-1.089 -5.434,-2.515c-1.588,-1.621 -1.424,-4.486 -3.012,-6.107c1.129,0.095 1.89,1.466 3.019,1.56c4.021,0.337 3.965,-0.815 7.963,0.517c6.13,2.043 6.151,-0.725 7.665,-0.903c3.237,-2.825 6.474,-5.65 9.711,-8.474Z" style="fill:#e79f5a;"/><path d="M2228.303,1722.148c-4.889,-18.321 -5.668,-18.661 -4.464,-19.825c1.746,-1.689 14.863,2.308 16.113,2.689c76.331,23.263 60.839,91.67 57.616,121.888c-9.923,23.648 -20.684,34.684 -52.621,64.167c-0.194,-2.024 -4.013,-2.394 -4.207,-4.419c-0.108,-1.129 9.16,-12.292 12.974,-16.591c57.944,-66.26 31.643,-144.294 -25.412,-147.909Z" style="fill:#fac87d;"/><path d="M2019.359,1885.036c-16.942,6.084 -18.375,-0.169 -34.664,7.245c-85.782,39.044 -100.228,94.356 -103.216,105.796c-2.421,9.269 -20.348,-12.117 -2.395,-40.611c9.052,-14.366 25.361,-30.94 32.129,-37.911c14.158,-14.74 55.447,-49.662 78.533,-48.173c10.212,0.659 27.444,12.202 29.612,13.654Z" style="fill:#fddc8e;"/><path d="M1119.489,1506.423c3.174,7.555 3.127,7.519 3.428,8.159c0.4,0.851 1.779,0.94 2.179,1.79c-0.589,0.282 -1.233,0.436 -1.822,0.718c-17.073,8.171 14.351,50.617 9.437,85.291c-2.2,15.525 -7.051,14.79 -5.212,30.261c-12.366,13.465 -15.152,8.141 -15.221,6.808c-0.049,-0.947 12.865,-24.644 -3.521,-61.524c-15.543,-34.983 -38.731,-23.133 -41.656,-63.063c30.325,4.132 34.516,11.833 52.387,-8.44Z" style="fill:#96b446;"/><path d="M2590.351,2663.479c-16.509,-11.211 -17.603,-8.743 -34.829,-18.417c-21.644,-12.156 -2.314,-17.977 8.945,-16.532c80.518,10.333 100.861,111.747 83.276,114.687c-17.454,2.918 4.284,-31.017 -57.392,-79.737Z" style="fill:#f1f9df;"/><path d="M1252.695,1629.63c0.788,2.464 -1.4,5.273 -0.612,7.737c1.197,3.742 22.339,8.37 48.39,36.921c4.89,5.359 5.085,5.024 9.26,11.129c2.864,4.188 2.933,4.185 3.361,4.167c4.486,-0.193 2.299,-4.411 6.674,-4.599c0.798,3.253 7.559,30.829 2.344,41.801c-9.665,20.334 -16.447,-12.481 -29.355,-28.05c-41.312,-49.825 -87.944,-64.569 -89.886,-67.883c-2.015,-3.44 0.229,-14.524 49.825,-1.222Z" style="fill:#fce1b4;"/><path d="M1506.576,1038.307c69.593,6.928 70.505,-15.825 112.196,-2.963c12.126,3.741 23.412,9.35 45.71,9.069l1.409,1.777c-4.479,7.278 -3.868,7.39 -8.765,14.715c-3.696,-1.765 -1.825,-3.765 -5.617,-5.576c-0.247,-0.118 -0.972,-0.464 -3.121,1.403c-12.18,10.585 -13.819,6.933 -29.491,3.112c-27.181,-6.626 -26.389,1.486 -33.67,3.777c-1.135,0.357 -34.311,-3.05 -37.291,-3.356c-2.464,-0.253 -4.355,-0.447 -29.186,-10.318c-10.839,-4.308 -11.002,-10.52 -12.174,-11.64Z" style="fill:#b6ba4c;"/><path d="M2070.523,2008.186c-15.088,6.494 -14.429,8.763 -30.964,9.839c-77.294,-19.211 -74.039,-44.023 -129.087,-32.23c-18.621,3.989 -1.652,-31.189 45.408,-19.539c27.504,6.809 69.134,29.209 100.696,34.096c10.834,1.677 11.008,1.333 11.743,2.222c1.281,1.549 0.924,4.063 2.204,5.612Z" style="fill:#fbc978;"/><path d="M920.604,1780.393c15.471,-25.354 48.802,-1.51 55.022,13.853c6.499,16.051 7.798,15.294 21.914,25.037c18.502,12.771 14.139,17.657 25.976,32.356c6.722,8.347 6.782,8.261 7.356,8.992c9.096,11.589 -2.417,8.227 -3.892,8.406c-25.162,-18.369 -87.393,-59.881 -106.376,-88.644Z" style="fill:#a9cb68;"/><path d="M1993.493,1656.685c2.07,1.429 21.579,14.902 19.625,24.563c-1.934,9.562 -16.527,-8.542 -44.382,-12.409c-19.957,-2.771 -11.746,9.928 -10.774,10.721c14.296,11.674 46.631,12.539 39.186,21.594c-0.462,0.562 -49.167,22.216 -76.647,-29.244c-6.669,-12.49 1.879,-15.932 18.938,-20.327c30.788,-7.933 50.264,2.979 54.053,5.102Z" style="fill:#9fc663;"/><path d="M2011.95,2032.878c-8.633,2.769 -72.314,23.196 -109.719,28.374c-28.373,3.927 -28.533,2.083 -37.011,-1.985c-2.702,-3.408 -18.958,-23.915 -12.738,-52.851c0.957,-4.451 5.653,-5.463 7.652,0.046c15.628,43.064 47.384,43.723 83.706,33.367c30.679,-8.747 28.678,-21.176 53.637,-15.223c2.79,0.665 12.686,2.054 12.978,2.43c1.233,1.588 0.263,4.254 1.495,5.842Z" style="fill:#f5c882;"/><path d="M1328.197,1614.072c-1.946,0.882 -3.335,2.752 -5.281,3.634c-0.977,0.443 -5.52,-1.495 -5.141,5.302c1.329,23.867 6.394,22.81 5.933,24.797c-0.708,3.058 -6.311,3.22 -7.02,6.278c-32.875,-41.524 -56.377,-26.57 -53.903,-48.053c1.132,-9.826 -10.468,-16.909 -9.066,-24.325c2.388,-12.633 15.196,11.752 18.915,13.015c21.884,7.429 24.167,-52.125 40.91,-21.308c7.656,14.093 -0.87,17.567 14.654,40.66Z" style="fill:#e9eb85;"/><path d="M1125.096,1516.372c7.704,22.112 6.755,22.236 13.945,44.344c2.353,7.236 7.124,6.956 8.798,-0.333c6.113,-26.612 18.297,-57.554 21.12,-57.681c12.339,-0.556 -4.243,36.47 -11.549,62.095c-5.416,18.996 37.329,-4.5 41.247,-1.324c1.196,0.97 6.775,6.018 -12.761,14.413c-35.774,15.372 -40.021,16.147 -42.595,44.458c-1.276,0.805 -1.149,0.916 -15.804,10.297c-1.839,-15.471 3.012,-14.736 5.212,-30.261c4.913,-34.673 -26.51,-77.12 -9.437,-85.291c0.589,-0.282 1.233,-0.436 1.822,-0.718Z" style="fill:#e0f296;"/><path d="M959.186,2747.485c6.357,-12.73 5.181,-13.543 11.068,-18.675c38.715,-33.754 74.987,8.392 71.861,23.067c-2.406,11.298 -21.668,7.823 -65.018,7.49c-11.533,-0.089 -19.927,4.708 -17.911,-11.881Z" style="fill:#2f6647;"/><path d="M1102.282,1851.533c24.332,17.308 21.543,20.761 46.528,36.917c0.19,0.491 -2.663,4.931 3.274,8.444c19.069,11.284 13.174,24.944 25,20.368c3.328,-1.288 3.039,-1.493 6.276,-3.084c-3.724,18.636 -5.331,19.087 -6.927,19.535c-3.125,0.877 -98.434,-29.06 -94.442,-40.18c0.536,-1.492 3.227,0.074 9.961,-17.133c1.415,2.219 4.444,0.271 5.82,9.125c1.206,7.765 30.044,31.038 29.368,16.558c-0.753,-16.099 -13.5,-25.414 -15.504,-26.878c-8.484,-6.2 -7.195,-7.784 -8.076,-7.655c0,0 -9.523,4.903 -10.351,5.33c2.489,-10.234 2.541,-10.168 2.985,-12.654c0.904,-5.058 -1.375,-5.479 1.512,-9.601c1.767,-2.523 2.882,3.328 4.577,0.908Z" style="fill:#9ebe5a;"/><path d="M1889.995,841.723c0.289,0.921 -3.22,6.001 3.755,11.955c29.417,25.112 35.362,55.476 36.455,61.059c1.955,4.115 3.909,8.231 5.864,12.346c-5.605,9.71 -5.452,9.553 -6.661,11.384c-1.643,2.488 -26.107,29.058 -26.665,29.076c-2.274,0.075 -3.948,-2.88 -6.222,-2.805c18.616,-99.694 -41.871,-126.225 -6.525,-123.016Z" style="fill:#d0df74;"/><path d="M1889.995,841.723c64.737,15.275 83.665,110.191 12.446,144.677c-14.955,7.242 -8.711,-7.179 -5.921,-21.662c2.274,-0.075 3.948,2.88 6.222,2.805c0.559,-0.018 25.022,-26.588 26.665,-29.076c1.209,-1.831 1.055,-1.674 6.661,-11.384c0.539,-2.898 2.419,-5.435 2.958,-8.333c1.165,-6.269 -2.467,-4.132 -8.821,-4.013c-1.093,-5.583 -7.037,-35.947 -36.455,-61.059c-6.974,-5.954 -3.465,-11.034 -3.755,-11.955Z" style="fill:#96b655;"/><path d="M955.018,1401.766c0.89,-2.357 -1.435,-2.27 -0.552,-4.609c1.275,-3.378 2.671,-2.201 4.346,-5.442c0.597,-1.155 -0.585,-3.107 0.466,-3.873c1.432,-1.045 3.534,-0.3 5.306,-0.338c7.642,-0.166 8.104,0.047 12.698,6.247c3.843,5.187 5.618,3.062 9.503,8.333c2.783,3.775 0.566,4.774 3.703,8.333c1.387,1.574 3.471,2.479 4.717,4.167c2.311,3.132 -1.836,3.822 0.094,7.362c0.517,0.948 2.468,-0.158 3.17,0.662c1.937,2.264 3.979,15.14 4.192,16.483c1.016,6.405 6.149,12.954 6.917,13.934c18.254,23.29 2.874,40.154 7.345,44.715c1.997,2.037 5.215,2.57 7.213,4.608c-0.221,1.485 -2.265,15.215 -2.34,18.627l-3.831,0.88c-0.562,-0.854 2.204,-1.735 1.642,-2.589c-0.708,-1.076 -4.879,-0.697 -8.317,-9.263c-9.143,-22.785 -19.188,-84.781 -29.944,-74.503c-3.28,3.134 -1.006,3.8 1.484,24.383c-11.906,-11.871 -16.989,-9.425 -17.638,-24.901c-0.8,-19.085 -0.442,-22.596 -0.242,-24.549c1.289,-12.614 -7.221,-8.411 -9.933,-8.667Z" style="fill:#729d37;"/><path d="M924.14,1725.56l1.811,2.384c0.648,2.837 1.296,5.674 1.944,8.511l-4.741,3.397c-0.619,1.594 -2.402,2.552 -3.021,4.146c-2.521,6.491 1.428,5.312 7.034,9.39c-13.412,14.682 -16.851,12.327 -19.956,13.621c-7.425,-6.603 -7.134,-6.653 -14.005,-13.921c0.128,-2.248 4.218,-2.925 4.346,-5.173c0.358,-6.311 -2.276,-5.366 -6.276,-13.152c-2.299,-4.473 -18.813,-36.611 -12.718,-61.567c3.902,-15.973 11.065,-13.489 18.684,-4.003c15.745,19.604 0.419,19.459 0.309,19.502c-6.887,2.687 -5.566,14.712 4.232,15.55c6.255,0.535 6.717,-0.095 13.287,5.864c7.021,6.367 8.243,5.989 9.071,15.45Z" style="fill:#c9381f;"/><path d="M2202.19,1023.024c41.582,-38.523 67.819,-62.485 69.703,-49.26c0.583,4.094 -16.34,23.894 -17.974,25.806c-44.963,52.608 -92.816,78.864 -101.391,72.686c-11.18,-8.055 16.928,-20.226 49.662,-49.232Z" style="fill:#e2cca6;"/><path d="M1856.639,1905.469c17.587,13.993 30.112,7.819 37.144,5.788c-0.638,1.615 3.864,2.475 3.226,4.089c-0.493,1.248 -8.979,6.893 -17.868,17.663c-0.53,-0.309 -0.945,-7.898 -18.241,-4.499c-1.06,0.575 -42.755,16.858 -46.764,56.832c-2.738,27.3 20.506,49.733 4.528,42.759c-1.992,-0.869 -18.942,-11.782 -21.901,-29.842c-6.733,-41.09 36.228,-72.576 41.867,-76.709c9.824,-7.2 10.753,-6.07 18.01,-16.081Z" style="fill:#facd7d;"/><path d="M1998.032,1718.078c-0.326,2.72 2.154,5.02 -2.757,9.811c-10.654,10.393 -19.862,24.794 -19.016,28.447c0.248,1.073 3.093,9.091 12.915,-4.757c17.737,-25.007 19.12,-24.246 21.124,-33.013c1.634,0.05 2.654,-2.428 4.287,-2.378c10.709,0.325 6.132,55.021 -53.801,74.645c-17.274,5.656 -8.014,-19.422 -7.354,-21.792c12.925,-46.389 37.446,-48.94 44.602,-50.964Z" style="fill:#8fb65c;"/><path d="M923.828,1506.03c4.711,11.739 3.895,12.299 14.383,22.509c4.398,16.371 -3.513,15.168 -8.072,31.465c-12.786,45.702 13.215,81.428 9.235,87.797c-1.611,2.578 -10.569,6.837 -12.32,6.535c-2.81,-0.484 -7.08,-10.149 -7.515,-11.132c0.806,-0.333 0.522,2.586 1.328,2.253c20.409,-8.428 -14.418,-30.749 -12.592,-72.676c5.021,-28.662 2.295,-28.873 8.073,-57.469c1.926,-9.531 5.507,-6.833 7.48,-9.282Z" style="fill:#8eaa44;"/><path d="M2228.303,1722.148c57.055,3.615 83.356,81.649 25.412,147.909c-0.166,-2.438 -3.72,-3.779 -3.885,-6.217c-0.092,-1.35 7.87,-14.508 8.86,-17.016c37.998,-96.278 -23.034,-108.037 -31.38,-111.213c-0.453,-6.778 -0.54,-6.643 0.994,-13.463Z" style="fill:#ae631d;"/><path d="M897.566,1565.727c3.57,2.352 7.139,4.703 10.709,7.055c-1.827,41.927 33.001,64.248 12.592,72.676c-0.806,0.333 -0.522,-2.586 -1.328,-2.253c-20.775,-45.339 -15.197,-51.324 -51.531,-72.941c-5.877,-3.496 -36.924,-19.421 -31.735,-25.578c4.916,-5.833 34.266,14.825 40.585,20.35c19.77,17.287 -0.262,-15.318 -0.952,-16.44c-2.196,-3.574 -26.326,-42.849 -21.478,-47.834c8.958,-9.21 11.85,14.833 43.138,64.965Z" style="fill:#d9f593;"/><path d="M2034.45,1722.948c0.984,-1.053 -0.057,-3.17 0.927,-4.223c5.752,-6.154 34.152,26.937 52.84,14.69c9.718,-6.369 -6.372,-12.705 -7.499,-13.148c-11.924,-4.695 -23.604,-6.402 -24.229,-9.94c-0.768,-4.345 0.823,-5.863 16.304,-8.975c3.199,-0.643 28.104,-2.487 39.999,26.728c0.439,1.079 2.373,5.829 6.706,12.928c-18.967,15.423 -54.338,11.972 -72.225,0.003c-6.897,-4.615 -11.012,-1.764 -12.686,-1.712c1.463,-8.278 1.422,-8.121 -0.137,-16.351Z" style="fill:#8ba754;"/><path d="M1766.6,1023.467c-2.235,4.984 -16.161,36.044 -44.732,51.574c-36.434,19.805 -38.051,11.472 -40.251,10.477c12.671,-23.652 13.09,-32.983 14.15,-37.128c0.458,0.111 0.482,-1.169 0.94,-1.058c5.638,1.365 4.901,2.547 5.377,2.587c0.845,0.07 11.03,-3.104 11.981,-3.4c27.918,-8.7 41.279,-28.436 44.484,-27.768c3.045,0.634 5.006,4.083 8.051,4.717Z" style="fill:#d8e47a;"/><path d="M2177.079,1785.48c9.043,20.651 8.871,34.087 -11.804,75.333c-7.476,14.915 -31.929,47.29 -41.789,51.205c-6.098,2.421 -6.133,1.494 -12.826,1.859l-1.512,-3.018c1.199,-1.969 -0.271,-2.742 3.522,-5.784c20.709,-16.613 60.994,-79.023 51.859,-107.144c-1.58,-4.865 -0.385,-4.799 -0.777,-9.685c6.723,-1.827 6.511,-1.656 13.327,-2.765Z" style="fill:#fdd180;"/><path d="M2139.021,1805.452c4.116,7.064 9.122,7.92 1.023,34.318c-7.91,25.78 -40.997,69.798 -58.717,68.754c-3.574,-0.211 -34.601,-6.369 -36.261,-7.541c-0,-0 -5.03,-6.54 -5.467,-7.109c9.999,0.561 47.94,9.072 77.177,-38.701c9.163,-14.971 5.881,-21.591 22.246,-49.721Z" style="fill:#fed687;"/><path d="M1248.897,1675.839c16.249,15.77 18.781,12.721 33.329,29.744c27.196,50.591 28.256,53.198 18.68,71.405c-16.443,-26.944 -13.65,-28.52 -33.014,-53.229c-2.186,-2.79 -10.175,-12.983 -31.772,-30.876c-1.467,-1.215 -4.776,-1.087 -4.87,-2.989c-0.127,-2.577 4.536,-3.786 4.409,-6.364l3.776,-2.48c3.154,-1.737 6.308,-3.474 9.462,-5.212Z" style="fill:#e59f5b;"/><path d="M2651.729,2648.156c-10.481,-15.395 -11.299,-15.84 -32.129,-30.595c-1.366,-0.968 -31.006,-21.963 -5.004,-20.319c52.003,3.289 72.8,76.619 66.231,83.627c-9.296,9.916 -21.096,-20.179 -29.098,-32.713Z" style="fill:#eff9e1;"/><path d="M998.191,1797.16c5.734,-9.252 10.189,-13.123 20.575,-11.901c32.787,3.857 39.617,41.32 40.499,46.153c2.857,15.672 2.493,16.368 -7.369,29.036c-14.451,-21.798 -18.226,-18.923 -23.028,-29.907c-9.381,-21.456 -11.004,-20.747 -30.677,-33.38Z" style="fill:#e4a942;"/><path d="M1290.267,1900.978c1.033,-0.501 19.541,-13.242 36.494,1.48c14.523,12.611 3.494,18.906 15.604,33.994c0.102,2.261 -1.451,1.678 -1.356,3.798c0.132,2.943 1.761,1.687 1.608,1.805c-9.856,7.6 -48.92,8.214 -53.229,8.282c13.106,-23.323 12.152,-25.269 0.878,-49.359Z" style="fill:#9ebe48;"/><path d="M2175.739,1872.2c34.123,-56.914 17.431,-67.911 30.856,-72.548c16.22,-5.602 11.159,17.107 10.782,18.8c-13.492,60.536 -60.118,100.982 -69.267,91.675c-5.801,-5.902 6.165,-3.182 27.629,-37.927Z" style="fill:#fed27f;"/><path d="M964.033,1534.999c3.359,2.642 1.424,4.047 4.717,6.637c1.263,0.994 0.975,-1.79 2.36,-1.071c2.198,1.142 8.587,18.78 9.199,20.468c-0.96,0.358 -0.86,-2.836 -1.82,-2.478c-12.53,4.678 -26.483,36.888 -4.738,80.733c1.689,3.405 3.115,3.742 1.106,5.062c-2.252,1.479 -4.221,3.362 -6.473,4.84c-7.054,-4.537 -15.776,-4.838 -21.56,-51.182c-3.473,-27.822 0.449,-37.103 17.21,-63.01Z" style="fill:#f87051;"/><path d="M954.76,1699.272c1.2,-2.356 4.494,-3.166 5.695,-5.522c0.787,-1.544 -1.4,-3.911 -0.235,-5.194c1.579,-1.74 23.565,10.436 36.998,11.49c7.796,0.612 9.278,6.228 10.713,7.44c-0.325,1.893 0.172,1.88 -0.611,3.559c-7.478,16.03 3.756,24.709 -13.389,29.217c-10.668,2.806 -12.394,0.426 -39.17,-40.99Z" style="fill:#93ae40;"/><path d="M891.969,1629.05c-5.098,-1.186 -5.357,-3.055 -9.624,-0.202c-2.132,1.425 -9.789,9.124 -11.744,12.018c-19.601,29.01 -6.988,60.511 -4.419,68.921c-3.211,-2.269 -3.748,2.948 -7.029,0.63c-0.6,-0.424 -0.461,-0.547 -3.874,-8.333c-5.467,-12.472 -4.805,-24.366 -6.853,-37.499c-0.131,-3.824 -0.869,-25.411 17.654,-44.444c1.619,-1.663 20.053,-20.605 28.353,-6.147c4.354,7.585 5.569,7.101 5.194,7.745c-1.776,3.05 -5.882,4.261 -7.658,7.311Z" style="fill:#7d2f10;"/><path d="M954.76,1699.272c-9.708,-14.738 -22.008,-29.586 -11.116,-30.96c26.909,-3.395 42.171,5.301 54.781,16.591c15.824,14.166 12.252,16.83 9.504,22.583c-1.435,-1.212 -2.917,-6.828 -10.713,-7.44c-13.433,-1.054 -35.419,-13.23 -36.998,-11.49c-1.165,1.284 1.022,3.65 0.235,5.194c-1.2,2.356 -4.494,3.166 -5.695,5.522Z" style="fill:#c1da78;"/><path d="M1847.639,1822.987c-26.614,21.888 -33.046,31.452 -35.255,34.738c-13.1,19.48 -8.487,29.3 -23.968,46.443c-2.612,-3.208 -5.89,-2.29 -4.199,-10.402c0.551,-2.645 2.737,-44.674 48.008,-73.302c14.316,-9.053 14.092,-0.337 15.415,2.523Z" style="fill:#fed887;"/><path d="M964.033,1534.999c15.195,-13.982 16.602,0.107 41.089,42.834c3.118,5.44 3.034,5.37 19.829,35.672c-5.027,0.941 -3.267,4.311 -8.256,5.245c-0.362,0.068 -1.001,0.187 -3.451,-3.054c-6.863,-9.079 -7.906,-11.816 -8.346,-12.969c-3.618,-9.494 -4.807,-8.707 -14.735,-21.624c-2.3,-4.316 -4.6,-8.632 -6.901,-12.947l-2.954,-7.121c-0.611,-1.688 -7.001,-19.327 -9.199,-20.468c-1.385,-0.72 -1.097,2.064 -2.36,1.071c-3.293,-2.59 -1.358,-3.995 -4.717,-6.637Z" style="fill:#fca06e;"/><path d="M1573.523,878.319c-1.369,0.572 -14.799,9.487 -22.898,-0.098c-18.355,-21.722 53.429,-46.046 46.776,-17.963c-1.331,5.619 -21.782,16.904 -23.879,18.061Z" style="fill:#fef9d7;"/><path d="M982.831,1459.883c-2.49,-20.584 -4.764,-21.249 -1.484,-24.383c10.756,-10.278 20.801,51.718 29.944,74.503c3.437,8.566 7.608,8.187 8.317,9.263c0.562,0.854 -2.204,1.735 -1.642,2.589c-9.368,2.657 -12.293,6.007 -15.813,-3.137c-11.175,-29.024 -10.614,-29.08 -19.321,-58.834Z" style="fill:#afd972;"/><path d="M1897.343,2023.825c-13.109,-11.887 -0.439,-11.816 0.503,-11.775c27.516,1.201 41.339,-12.966 62.29,-5.312c5.359,1.958 3.009,7.036 0.852,8.328c-33.986,20.357 -58.859,10.63 -63.646,8.758Z" style="fill:#f0a665;"/><path d="M1328.197,1614.072c8.601,15.688 6.1,18.119 8.642,29.277c2.682,11.772 9.348,10.877 14.735,17.388c9.952,12.028 -9.324,12.394 -11.832,12.928c-10.171,2.163 -12.395,-5.73 -23.054,-19.581c0.708,-3.058 6.311,-3.22 7.02,-6.278c0.46,-1.987 -4.604,-0.929 -5.933,-24.797c-0.378,-6.797 4.165,-4.859 5.141,-5.302c1.946,-0.882 3.335,-2.752 5.281,-3.634Z" style="fill:#c4d269;"/><path d="M2542.666,2769.262c-2.479,-10.954 -5.503,-12.299 2.348,-20.036c1.172,-1.155 8.844,-8.714 19.696,-5.945c29.638,7.562 5.745,61.121 -22.044,25.981Z" style="fill:#2d6241;"/><path d="M2039.454,1793.436c9.273,-2.678 10.81,-4.212 25.259,-0.15c1.597,0.449 16.564,4.657 16.183,12.975c-1.117,24.381 -77.977,10.268 -41.442,-12.825Z" style="fill:#5c5e21;"/><path d="M2468.217,2732.224c-8.873,-6.936 -11.117,-7.006 -9.309,-17.996c0.834,-5.07 5.982,-13.413 14.136,-15.916c26.076,-8.006 38.231,45.765 -4.827,33.913Z" style="fill:#2f6243;"/><path d="M2502.548,2855.721c-1.139,-1.619 -9.42,-7.55 -4.571,-20.279c3.937,-10.334 11.201,-11.593 12.561,-11.828c31.764,-5.502 29.79,54.794 -7.99,32.108Z" style="fill:#3b6b49;"/><path d="M2451.19,2797.93c-6.315,42.118 -54.939,8.523 -31.496,-11.551c1.208,-1.035 9.187,-7.866 19.49,-3.956c12.494,4.742 11.994,15.469 12.006,15.506Z" style="fill:#366846;"/><path d="M1860.901,1928.51c17.296,-3.398 17.711,4.191 18.241,4.499c-43.659,61.114 -32.221,67.151 -36.529,71.96c-8.276,9.238 -9.613,-25.125 -5.153,-35.339c11.071,-25.356 32.284,-21.495 23.441,-41.12Z" style="fill:#fcc977;"/><path d="M1243.702,1948.613c-0.76,-1.762 -2.322,-3.101 -3.082,-4.863c-0.301,-0.697 1.448,-5.475 -5.032,-5.011c-0.863,0.062 -18.039,1.294 -5.879,-9.076c6.946,-5.923 5.523,-8.99 9.018,-15.427c10.741,-19.779 56.763,19.507 33.341,23.623c-14.855,2.61 -10.745,-14.044 -15.508,-15.902c-2.029,-0.791 -17.15,-3.066 -4.604,26.828l-8.254,-0.173Z" style="fill:#adbf67;"/><path d="M1252.695,1629.63c30.741,9.474 53.408,25.286 67.073,55.354c-4.374,0.189 -2.188,4.406 -6.674,4.599c-0.428,0.018 -0.497,0.021 -3.361,-4.167c-4.175,-6.104 -4.37,-5.77 -9.26,-11.129c-26.051,-28.551 -47.193,-33.179 -48.39,-36.921c-0.788,-2.464 1.4,-5.273 0.612,-7.737Z" style="fill:#e2a264;"/><path d="M1097.716,1659.142c0.604,-0.031 19.311,-5.966 58.351,14.068c-2.553,1.507 -5.105,3.013 -7.658,4.52c-0.75,0.604 -2.044,0.132 -2.795,0.737c-4.024,3.24 -1.401,3.972 -0.164,9.466c-2.295,0.713 -3.572,3.478 -5.868,4.191c-3.068,0.952 -2.57,-0.605 -6.331,-4.574c-8.693,-9.173 -26.205,-10.894 -35.536,-28.408Z" style="fill:#f7c47f;"/><path d="M1767.605,1000.196c1.157,2.507 4.513,3.531 5.67,6.038c0.411,0.89 -6.087,15.876 -6.675,17.233c-3.045,-0.634 -5.006,-4.083 -8.051,-4.717c-3.205,-0.668 -16.566,19.068 -44.484,27.768c-0.951,0.296 -11.136,3.47 -11.981,3.4c-0.476,-0.039 0.262,-1.222 -5.377,-2.587c-0.458,-0.111 -0.482,1.169 -0.94,1.058c8.378,-16.948 14.944,-8.965 40.217,-24.406c14.807,-9.047 17.94,-10.226 31.621,-23.788Z" style="fill:#b5b955;"/><path d="M1024.136,1502.347c1.383,-8.577 0.024,-33.462 23.793,-36.308c10.253,-1.227 10.212,10.689 0.137,15.382c-1.673,0.779 -3.921,-1.401 -4.603,3.953c-1.098,8.616 -3.683,8.006 -3.856,16.719c-0.125,6.318 -2.306,5.086 -8.357,9.847c-0.561,0.441 -0.258,0.601 -3.522,8.195l-5.931,0.838c0.074,-3.412 2.119,-17.142 2.34,-18.627Z" style="fill:#54822d;"/><path d="M2222.272,1876.083c-11.286,7.453 -11.828,11.922 -15.431,7.274c-2.29,-2.954 16.165,-27.113 22.923,-52.829c0.252,-0.96 7.063,-26.875 9.806,-7.606c3.932,27.619 -14.439,49.722 -17.298,53.161Z" style="fill:#fdba71;"/><path d="M1148.809,1888.45c18.115,2.283 17.994,1.997 36.407,2.177c1.177,1.076 2.355,2.152 3.532,3.227c-0.433,1.625 -5.264,19.767 -5.389,20.324c-3.237,1.591 -2.948,1.796 -6.276,3.084c-11.826,4.576 -5.931,-9.085 -25,-20.368c-5.937,-3.513 -3.084,-7.954 -3.274,-8.444Z" style="fill:#769736;"/><path d="M1093.208,1872.88c0.828,-0.426 10.351,-5.33 10.351,-5.33c0.881,-0.129 -0.409,1.455 8.076,7.655c2.004,1.465 14.751,10.78 15.504,26.878c0.677,14.48 -28.161,-8.794 -29.368,-16.558c-1.375,-8.854 -4.404,-6.906 -5.82,-9.125l1.257,-3.52Z" style="fill:#7aa32e;"/><path d="M2153.697,1729.661c-8.294,-21.505 18.184,-29.424 26.343,-22.025c9.692,8.788 -11.692,34.606 -26.343,22.025Z" style="fill:#794a14;"/><path d="M1815.871,1087.493c-23.135,14.364 -22.668,14.656 -46.235,28.733c-0.38,-4.658 -4.664,-2.313 -5.052,-7.07c-0.037,-0.448 -0.031,-0.384 4.167,-3.777c20.684,-16.718 19.629,-17.96 21.675,-19.026c3.385,-1.764 19.331,-7.435 19.992,-6.964c2.654,1.887 2.801,6.217 5.454,8.105Z" style="fill:#f9ce92;"/><path d="M1852.037,1831.287c4.978,8.821 3.237,9.647 -5.294,28.643c-2.174,4.841 -2.769,4.507 -27.98,17.428c-0.748,-1.56 -1.496,-3.12 -2.244,-4.679c9.884,-12.518 11.762,-10.778 20.126,-24.209c6.193,-9.943 6.833,-9.294 15.391,-17.183Z" style="fill:#fcbf75;"/><path d="M1186.153,1641.703c20.725,5.758 34.646,12.157 37.546,13.49c-0.396,0.751 -4.952,9.39 -4.952,9.39c-0.178,1.368 0.769,2.928 0.105,4.136c-1.108,2.016 -3.888,2.745 -4.996,4.761c-18.775,-12.341 -28.044,-24.774 -28.14,-25.564c-0.249,-2.061 0.687,-4.153 0.437,-6.214Z" style="fill:#edb16e;"/><path d="M1223.699,1655.193c14.712,7.844 15.862,6.684 25.198,20.646c-3.154,1.737 -6.308,3.474 -9.462,5.212l-3.776,2.48c-11.427,-3.903 -11.182,-4.08 -21.803,-10.05c1.108,-2.016 3.888,-2.745 4.996,-4.761c0.664,-1.209 -0.282,-2.768 -0.105,-4.136c0,0 4.556,-8.639 4.952,-9.39Z" style="fill:#ab6833;"/><path d="M1062.224,1584.905c9.082,4.333 16.774,15.468 13.032,34.124c-7.503,-3.963 -6.938,-4.912 -19.059,-9.146c-5.512,-10.786 -10.606,-14.315 0.351,-19.376c0.579,-0.268 0.42,-0.415 5.676,-5.603Z" style="fill:#d6e68b;"/><path d="M2316.07,1040.415c3.921,9.372 2.487,9.701 2.982,10.411c0.045,0.064 3.287,0.706 4.899,4.372c10.655,24.23 -9.879,27.764 -12.499,25.274c-5.48,-5.209 4.689,-10.016 3.65,-20.095c-0.564,-5.475 -3.467,-5.091 -3.995,-5.865c-6.686,-6.127 -12.52,-7.776 -4.858,-12.743c6.414,-4.158 8.388,-1.157 9.82,-1.354Z" style="fill:#d29e65;"/><path d="M2230.17,1761.957c13.167,-0.598 13.846,0.555 20.931,11.716c2.799,4.409 4.382,10.814 4.625,11.798c4.793,19.398 -3.664,19.539 -4.795,21.06c-9.259,-22.792 -9.42,-22.471 -20.761,-44.574Z" style="fill:#efb360;"/><path d="M1391.836,1795.089c2.615,-1.351 3.466,-5.052 6.081,-6.404c0.202,-0.104 5.308,1.589 7.121,2.745c21.248,13.545 23.531,16.911 24.938,18.986c1.202,1.773 -6.138,5.374 -11.263,4.984c-7.657,-0.583 -12.235,-9.003 -12.71,-8.989c-2.537,0.074 -3.436,4.649 -5.973,4.723c-4.319,-7.966 -4.176,-7.777 -8.193,-16.046Z" style="fill:#5a7c32;"/><path d="M1998.032,1718.078c1.392,-0.263 2.845,0.588 4.237,0.325c1.519,-0.287 2.675,-1.953 4.22,-1.922c1.447,0.029 2.362,2.056 3.809,2.085c-2.004,8.767 -3.387,8.006 -21.124,33.013c-9.822,13.848 -12.667,5.829 -12.915,4.757c-0.846,-3.654 8.362,-18.054 19.016,-28.447c4.911,-4.791 2.431,-7.09 2.757,-9.811Z" style="fill:#507822;"/><path d="M1527.129,2055.943c3.821,9.083 4.335,8.974 4.121,9.797c-0.323,1.246 -0.763,0.88 -8.453,3.158c-0.43,0.127 -1.175,2.513 -4.576,1.101c-5.542,-2.302 -4.685,-3.299 -5.15,-3.472c-0.739,-0.275 -1.575,1.196 -2.238,0.768c-0.75,-0.484 -0.063,-1.905 -0.614,-2.607c-3.35,-4.269 -4.078,-3.148 -12.313,-6.631c-0.542,-0.229 -4.768,-2.017 -5.349,-5.057c-1.567,-8.211 -2.599,-10.269 5.265,-12.74c6.333,-1.99 4.983,8.68 8.47,11.802c8.394,7.516 9.523,4.977 20.837,3.881Z" style="fill:#eed6a9;"/><path d="M1706.043,1222.536c-6.872,4.143 -6.615,4.704 -14.466,5.194c-1.369,-3.405 -11.687,-24.971 -1.993,-28.996c1.287,-0.534 2.829,0.24 4.18,-0.103c0.465,-0.118 6.746,-5.941 10.446,4.157c0.21,0.574 1.263,3.447 -0.281,7.631c-1.864,5.053 -3.304,5.07 -1.615,8.22c0.849,1.585 2.88,2.312 3.729,3.897Z" style="fill:#753b19;"/><path d="M1893.88,1858.414c-0.698,-0.382 -5.918,-0.111 -8.019,-6.539c-6.351,-19.436 12.735,-23.741 18.492,-11.369c5.674,12.192 2.405,14.556 -10.473,17.908Z" style="fill:#885a19;"/><path d="M1972.453,960.505c1.221,-7.348 1.016,-7.368 1.319,-7.936c9.812,-18.407 29.529,-2.429 18.597,10.786c-10.026,12.12 -19.028,-1.507 -19.916,-2.85Z" style="fill:#b9813e;"/><path d="M1125.995,1806.783c3.512,7.956 7.731,16.264 4.23,19.134c-4.578,3.752 -11.43,-6.747 -12.721,-10.522c-6.198,-18.123 -12.523,-33.349 -3.117,-29.638c3.215,1.269 10.857,19.257 11.608,21.026Z" style="fill:#e2b98e;"/><path d="M1892.978,1012.55c-0.889,2.42 2.895,3.83 -3.701,10.076c-1.546,1.464 -18.752,17.755 -20.645,16.792c-3.843,-1.954 -1.874,-4.039 -5.886,-5.9c-1.719,-0.797 -0.151,3.099 -1.909,2.284c12.962,-17.122 10.737,-23.328 32.14,-23.252Z" style="fill:#aa8449;"/><path d="M1154.667,1682.275c1.225,1.02 5.334,-0.894 8.776,7.308c0.531,1.266 2.684,6.396 12.746,11.501c0.572,0.29 0.801,-1.403 1.432,-1.285c2.165,0.403 3.875,2.274 6.039,2.677c0.332,2.391 0.664,4.783 0.996,7.174c-1.514,0.178 -1.535,2.946 -7.665,0.903c-3.998,-1.332 -3.941,-0.18 -7.963,-0.517c-1.129,-0.095 -1.89,-1.466 -3.019,-1.56c-8.003,-6.73 -8.909,-5.761 -13.936,-14.707c0.993,-1.696 3.349,-2.294 4.342,-3.99c1.238,-2.114 0.751,-4.206 0.667,-4.565c-0.466,-2.002 -1.954,-0.958 -2.415,-2.938Z" style="fill:#ca8340;"/><path d="M1156.067,1673.211c14.701,10.396 14.912,9.815 29.679,20.172c-0.695,3.031 -1.391,6.063 -2.086,9.094c-2.165,-0.403 -3.875,-2.274 -6.039,-2.677c-0.63,-0.117 -0.86,1.575 -1.432,1.285c-10.062,-5.106 -12.214,-10.235 -12.746,-11.501c-3.442,-8.202 -7.551,-6.288 -8.776,-7.308c-2.086,-1.515 -4.172,-3.03 -6.258,-4.545c2.553,-1.507 5.105,-3.013 7.658,-4.52Z" style="fill:#e39c5f;"/><path d="M1507.776,841.558c-9.345,8.97 -9.362,8.841 -16.335,19.813c-1.819,-3.878 -4.509,-1.197 -6.349,-5.121c-0.157,-0.335 1.098,0.115 1.993,-4.167c1.203,-5.756 -1.273,-5.684 -0.21,-11.505c0.923,-5.058 10.283,-7.872 11.355,-8.195c2.691,-0.809 3.932,-0.11 9.546,9.175Z" style="fill:#845d35;"/><path d="M851.187,2097.939c-0.973,0.498 -2.297,-0.265 -3.27,0.233c-1.845,0.944 -2.768,4.08 -4.834,3.912c-1.805,-0.147 -1.71,-3.249 -2.974,-4.547c-1.715,-1.761 -4.633,-2.36 -5.839,-4.501c-0.468,-0.83 1.006,-0.682 0.72,-11.89c-0.231,-9.046 3.687,-7.663 4.336,-7.434c4.724,1.667 9.489,5.943 10.212,6.593c0.757,0.679 0.404,0.751 1.648,17.635Z" style="fill:#b9854d;"/><path d="M1256.358,985.562c1.63,-0.481 2.827,-1.994 4.457,-2.475c13.006,-3.841 1.425,31.938 -10.017,20.268c-8.187,-8.35 -3.282,-10.072 5.56,-17.793Z" style="fill:#a57a3d;"/><path d="M2035.924,2756.021c-18.549,-7.28 -31.65,5.925 -30.343,-8.441c0.569,-6.251 15.979,-4.126 17.392,-3.931c9.707,1.339 8.644,3.508 12.951,12.372Z" style="fill:#286747;"/><path d="M1332.055,1879.861c-7.112,-8.323 -7.083,-8.206 -7.104,-8.433c-0.08,-0.907 -0.725,-8.173 6.303,-9.482c6.502,-1.211 30.219,20.03 0.801,17.915Z" style="fill:#fda47a;"/><path d="M2143.751,1688.49c-8.23,-1.157 -8.188,-1.093 -8.889,-1.249c-22.107,-4.921 8.236,-17.274 16.188,-9.205c6.222,6.313 1.006,7.379 -7.299,10.455Z" style="fill:#fdb692;"/><path d="M1090.724,1707.735c1.805,0.246 13.735,1.871 20.153,10.612c13.147,17.905 -22.96,2.932 -21.647,-8.091c0.116,-0.97 1.378,-1.552 1.494,-2.522Z" style="fill:#974b0f;"/><path d="M1056.197,1609.884c12.121,4.233 11.556,5.182 19.059,9.146c-3.137,7.464 -3.122,11.222 -10.45,7.424c-1.399,-0.725 -12.91,-6.693 -12.528,-15.191c0.062,-1.383 3.857,0.005 3.919,-1.378Z" style="fill:#b2bf62;"/><path d="M1614.063,1184.074c-26.276,2.074 -9.704,-11.827 -8.669,-12.461c7.564,-4.633 22.715,1.863 8.669,12.461Z" style="fill:#9a5f1f;"/><path d="M1890.907,1795.955c2.954,-9.066 2.112,-10.677 11.251,-13.497c3.018,-0.931 8.074,2.536 8.261,7.125c0.467,11.446 -17.92,6.776 -19.512,6.372Z" style="fill:#fba87e;"/><path d="M983.263,1568.156c2.3,4.316 4.6,8.632 6.901,12.947c-1.688,2.882 -3.376,5.764 -5.064,8.646c-1.078,-0.452 -11.811,-4.951 -11.823,-8.594c-0.004,-1.311 -0.008,-2.371 9.987,-13Z" style="fill:#e86c48;"/><path d="M1542.466,891.377c5.138,7.145 8.378,9.77 0.469,13.489c-5.455,2.565 -13.13,-1.459 -13.551,-6.709c-0.798,-9.933 3.449,-9.239 13.082,-6.779Z" style="fill:#feea8c;"/><path d="M2149.689,1216.394c-2.272,-0.766 -4.903,0.266 -7.174,-0.5c-2.264,-0.763 -2.978,-14.21 -2.932,-14.321c0.125,-0.299 7.536,-5.035 7.736,-4.955c2.247,0.89 9.405,9.613 7.604,12.305c-0.581,0.869 -2.126,0.675 -2.744,1.519c-0.305,0.416 -0.184,0.441 -2.49,5.953Z" style="fill:#ebcfa4;"/><path d="M2206.495,1769.449l4.323,2.67c5.628,6.607 10.872,8.194 3.647,13.07c-8.43,5.688 -16.37,-7.131 -17.176,-8.433c4.207,-4.342 4.107,-4.152 9.206,-7.307Z" style="fill:#fdd186;"/><path d="M1984.779,923.391c-0.369,-1.205 -4.66,-15.236 1.137,-15.709c5.049,-0.412 11.259,6.061 11.337,11.13c0.178,11.547 -11.543,5.092 -12.474,4.579Z" style="fill:#be894c;"/><path d="M1615.096,774.49c-1.069,0.136 -22.391,2.847 -8.975,-10.044c6.118,-5.878 29.211,-0.46 8.975,10.044Z" style="fill:#bb8c4d;"/><path d="M1710.442,943.706c13.958,15.986 -10.856,17.416 -12.316,8.326c-1.542,-9.599 2.728,-8.558 12.316,-8.326Z" style="fill:#93927b;"/><path d="M1264.997,1789.488c2.444,6.216 2.449,5.982 4.256,12.419c-14.177,6.842 -12.651,8.954 -13.963,9.224c-1.269,0.261 0.469,-2.723 -0.105,-3.884c-0.956,-1.936 -3.502,-2.871 -4.233,-4.903c-1.712,-4.76 4.898,-7.402 5.604,-7.685c1.373,-0.549 3.152,0.318 4.413,-0.455c1.763,-1.08 2.265,-3.636 4.027,-4.716Z" style="fill:#c5793b;"/><path d="M1193.958,1731.07c-0.34,-1.768 -2.434,-2.867 -2.774,-4.635c-0.188,-0.975 1.988,-5.723 3.319,-6.614c2.059,-1.379 30.018,2.809 3.765,14.957l-4.31,-3.708Z" style="fill:#83400a;"/><path d="M1340.095,1847.494c5.59,-9.328 7.648,-14.936 14.712,-6.624c0.836,0.984 8.212,23.106 -14.712,6.624Z" style="fill:#fe8b62;"/><path d="M810.067,2087.109c0.121,-2.179 2.803,-3.68 2.925,-5.859c0.28,-5.022 -3.96,-3.681 -3.7,-8.607c0.039,-0.742 0.802,-10.966 9.277,0.458c5.782,7.794 3.292,8.622 -0.522,17.39c-2.66,-1.127 -5.319,-2.255 -7.979,-3.382Z" style="fill:#a6743f;"/><path d="M1135.353,1739.659c4.024,7.482 8.489,10.643 0.223,12.814c-13.566,3.564 -13.239,-18.547 -4.492,-15.639c1.619,0.538 2.65,2.287 4.27,2.825Z" style="fill:#914209;"/><path d="M1314.206,1864.755c0.089,7.972 4.244,11.243 -3.702,12.923c-6.178,1.307 -5.969,-0.033 -11.943,-1.535c0.976,-2.546 1.951,-5.092 2.927,-7.638c6.075,-2.85 5.979,-2.676 12.718,-3.751Z" style="fill:#f08f6c;"/><path d="M1571.166,1173.364c-4.782,11.088 -8.073,7.505 -19.617,4.149c0.145,-0.306 -3.781,-7.262 8.777,-7.311c5.918,-0.023 5.672,0.558 10.84,3.161Z" style="fill:#a06325;"/><path d="M1722.805,851.785c-10.953,-1.169 -16.218,-4.688 -7.948,-11.853c2.398,-2.077 22.215,-1.421 7.948,11.853Z" style="fill:#b1b1a3;"/><path d="M1297.764,1859.542c1.241,2.988 2.483,5.976 3.724,8.963c-0.976,2.546 -1.951,5.092 -2.927,7.638c-7.169,-2.99 -6.869,-3.26 -13.167,-7.798c5.988,-4.912 5.753,-4.975 12.37,-8.804Z" style="fill:#b35128;"/><path d="M985.455,1607.065c3.755,5.922 3.765,5.802 4.777,12.655c-1.073,0.376 -11.748,4.119 -13.255,-5.111c-0.113,-0.691 -0.862,-5.279 4.512,-7.504c1.222,-0.506 2.745,0.466 3.967,-0.04Z" style="fill:#fea782;"/><path d="M1176.093,1805.668c-1.051,0.013 -1.941,0.985 -2.992,0.998c-13.188,0.163 -6.408,-25.594 3.172,-12.144c2.631,3.693 0.934,3.896 -0.18,11.147Z" style="fill:#be661d;"/><path d="M1278.752,1711.877c-2.881,9.635 -6.802,5.266 -14.417,-1.243c-9.849,-8.418 -0.21,-8.31 0.455,-8.302c6.274,0.07 9.784,5.638 13.962,9.545Z" style="fill:#9e5519;"/><path d="M1309.263,1854.617c1.648,3.379 3.295,6.759 4.943,10.138c-6.74,1.075 -6.644,0.901 -12.718,3.751c-1.241,-2.988 -2.483,-5.976 -3.724,-8.963c5.647,-2.839 5.383,-2.908 11.499,-4.926Z" style="fill:#e0673e;"/><path d="M1665.462,754.59c-0.961,1.69 -0.051,4.054 -1.013,5.744c-0.775,1.362 -13.207,5.102 -15.748,3.323c-1.249,-0.874 -5.861,-10.192 16.76,-9.068Z" style="fill:#b88845;"/><path d="M1148.409,1677.73c2.086,1.515 4.172,3.03 6.258,4.545c0.461,1.98 1.949,0.937 2.415,2.938c0.084,0.359 0.571,2.451 -0.667,4.565c-0.993,1.696 -3.349,2.294 -4.342,3.99c-2.207,-1.945 -4.415,-3.89 -6.622,-5.836c-1.237,-5.495 -3.86,-6.227 0.164,-9.466c0.75,-0.604 2.044,-0.132 2.795,-0.737Z" style="fill:#89460b;"/><path d="M934.694,1731.733c8.363,4.734 13.9,7.68 5.322,12.017c-3.95,1.997 -8.834,-1.787 -9.449,-2.263c-3.667,-2.841 -7.288,-1.607 -7.413,-1.635l4.741,-3.397c2.266,-1.574 4.532,-3.149 6.799,-4.723Z" style="fill:#e86936;"/><path d="M1268.648,1022.939c1.283,-0.574 -1.31,-3.642 -0.027,-4.215c8.215,-3.674 11.486,7.031 11.821,8.129c7.502,24.552 -11.236,-3.091 -11.794,-3.913Z" style="fill:#d4a865;"/><path d="M2208.111,1972.789c7.637,-14.538 17.786,11.674 7.807,9.664c-7.031,-1.416 -6.655,-2.699 -7.807,-9.664Z" style="fill:#d1cfc2;"/><path d="M2297.867,1073.338c0.308,0.575 3.998,1.813 4.27,7.971c0.228,5.163 -11.704,2.529 -12.054,2.236c-1.846,-1.545 -1.175,-6.187 -1.097,-6.727c0.594,-4.109 2.38,-2.313 8.88,-3.48Z" style="fill:#a16c37;"/><path d="M1756.254,927.086c6.62,-1.962 7.561,-3.847 9.153,-0.808c6.102,11.643 -11.005,15.018 -10.655,4.91c0.05,-1.455 1.452,-2.647 1.502,-4.102Z" style="fill:#a3a18d;"/><path d="M1952.069,1836.09c-1.05,-0.848 -2.835,-0.292 -3.885,-1.14c-0.499,-0.403 -4.639,-3.746 -0.37,-8.001c4.07,-4.057 21.208,2.843 4.255,9.142Z" style="fill:#fc926d;"/><path d="M2888.806,609.812c-13.525,12.799 -15.083,-7.743 -7.815,-8.404c2.577,-0.234 3.749,1.026 3.976,1.271c2.872,3.088 1.003,4.083 3.839,7.133Z" style="fill:#397556;"/><path d="M914.862,1727.366c-1.691,0.404 -2.91,2.055 -4.601,2.459c-7.286,1.741 -11.275,-13.851 0.166,-11.162c5.473,1.287 3.755,3.039 4.435,8.703Z" style="fill:#fd997d;"/><path d="M2044.278,1828.752c1.049,0.054 3.244,-3.369 9.098,0.469c7.026,4.607 -5.151,13.771 -9.609,6.19c-0.271,-0.461 0.037,-0.486 0.512,-6.66Z" style="fill:#fa7453;"/><path d="M1191.967,1826.537c-1.406,1.009 -1.188,3.488 -2.594,4.497c-8.637,6.195 -10.419,-17.585 -0.103,-11.518c0.519,0.305 0.196,0.511 2.697,7.021Z" style="fill:#a84c0c;"/><path d="M2036.369,1764.73c1.393,-1.263 1.084,-3.805 2.477,-5.067c7.361,-6.67 14.766,9.033 4.956,9.443c-0.689,0.029 -0.543,-0.32 -7.433,-4.376Z" style="fill:#fb8560;"/><path d="M2673.197,289.405c0.586,1.348 3.769,-2.03 4.355,-0.683c5.782,13.289 -7.574,13.435 -8.862,13.449c-3.366,0.037 -2.349,-1.589 -0.723,-4.382c0.398,-0.683 0.35,-0.406 5.229,-8.385Z" style="fill:#337751;"/><path d="M1185.746,1693.383c2.873,2.598 5.747,5.196 8.62,7.794c-3.237,2.825 -6.474,5.65 -9.711,8.474c-0.332,-2.391 -0.664,-4.783 -0.996,-7.174c0.695,-3.031 1.391,-6.063 2.086,-9.094Z" style="fill:#d99157;"/><path d="M1930.205,914.737c6.354,-0.119 9.986,-2.256 8.821,4.013c-0.539,2.898 -2.419,5.435 -2.958,8.333c-1.955,-4.115 -3.909,-8.231 -5.864,-12.346Z" style="fill:#b3cc60;"/><path d="M1027.415,1656.137c5.555,4.441 11.602,5.174 5.421,8.447c-7.349,3.891 -7.455,0.592 -14.115,-4.363c2.898,-1.361 5.796,-2.722 8.694,-4.083Z" style="fill:#da5f3c;"/><path d="M2101.077,1600.267c0.391,-0.236 4.882,-2.953 4.882,-2.953c1.18,-0.963 1.648,-4.49 2.857,-3.565c2.38,1.821 3.839,5.373 3.373,8.333c-0.672,4.268 -4.742,3.602 -5.24,3.521c-4.366,-0.714 -1.628,-4.643 -5.872,-5.337Z" style="fill:#86aa4b;"/><path d="M1624.225,1614.929c-1.688,1.392 -0.032,2.308 -1.715,3.696c-0.238,0.196 -1.688,1.392 -3.76,0.819c-7.708,-2.13 -8.991,-7.774 -0.966,-9.027c2.59,-0.404 3.851,4.917 6.441,4.512Z" style="fill:#e9ca9e;"/><path d="M1197.575,1884.851c-3.311,5.572 -3.679,4.962 -8.827,9.004c-1.177,-1.076 -2.355,-2.152 -3.532,-3.227c6.149,-3.27 5.873,-3.517 12.359,-5.776Z" style="fill:#454c1d;"/><path d="M2522.984,212.285c2.421,-1.688 1.678,-6.161 4.1,-7.85c2.322,-1.619 8.72,7.394 -0.286,8.506c-1.28,0.158 -2.533,-0.815 -3.813,-0.657Z" style="fill:#377251;"/><path d="M1328.055,960.709c-0.238,-2.612 -4.9,-3.346 -5.138,-5.958c-0.225,-2.463 8.005,-7.117 7.109,0.287c-0.565,4.666 -1.569,4.515 -1.97,5.671Z" style="fill:#b1c657;"/><path d="M1551.382,2202.654c-0.361,-0.615 -5.859,-9.978 -0.419,-8.904c6.908,1.364 7.047,4.31 7.079,5.002c0.223,4.731 -6.886,-0.887 -6.66,3.901Z" style="fill:#bc834c;"/><path d="M925.952,1727.945c2.914,1.263 5.828,2.525 8.742,3.788c-2.266,1.574 -4.532,3.149 -6.799,4.723c-0.648,-2.837 -1.296,-5.674 -1.944,-8.511Z" style="fill:#e4592c;"/><path d="M1326.334,1768.783c-0.664,1.278 1.73,2.909 1.066,4.186c-1.256,2.417 -4.077,2.391 -4.483,2.387c-5.261,-0.048 0.959,-1.844 3.417,-6.574Z" style="fill:#535517;"/><path d="M989.697,1597.883c-0.059,1.727 2.714,2.725 2.656,4.451c0,0 -6.346,4.351 -6.898,4.73c0.785,-0.805 0.542,-2.296 1.326,-3.101c0.89,-0.913 2.849,-0.6 3.401,-1.75c0.628,-1.31 -1.113,-3.021 -0.485,-4.331Z" style="fill:#d25a30;"/><path d="M1094.173,1846.279c-2.531,-1.807 -2.297,3.412 -4.782,1.638c-0.32,-0.229 -2.838,-2.026 0.193,-4.913c0.976,-0.93 2.825,0.209 3.922,0.992c0.645,0.461 0.022,1.823 0.667,2.283Z" style="fill:#854d27;"/><path d="M1327.023,1797.677c-4.83,6.545 -4.752,6.541 -5.216,7.069c-0.75,0.853 -2.31,0.646 -3.06,1.498c3.27,-5.229 3.686,-4.618 8.277,-8.567Z" style="fill:#515925;"/><path d="M1664.482,1044.413l4.277,-0.914l-2.868,2.691l-1.409,-1.777Z" style="fill:#948d39;"/></g></svg>